/* XPM */
static char * east_xpm[] = {
"64 64 203 2",
"  	c #100529",
". 	c #18073D",
"+ 	c #2A074B",
"@ 	c #152043",
"# 	c #A29BB1",
"$ 	c #2B1A39",
"% 	c #3A0658",
"& 	c #392E4B",
"* 	c #271D51",
"= 	c #FFFFFF",
"- 	c #3B1A46",
"; 	c #371A5D",
"> 	c #4A1952",
", 	c #3A0758",
"' 	c #362C62",
") 	c #133649",
"! 	c #45286D",
"~ 	c #0E1E31",
"{ 	c #472B56",
"] 	c #28303F",
"^ 	c #563752",
"/ 	c #3D3D39",
"( 	c #5D204E",
"_ 	c #45484D",
": 	c #3F1645",
"< 	c #415952",
"[ 	c #230539",
"} 	c #480663",
"| 	c #442731",
"1 	c #123649",
"2 	c #5F442C",
"3 	c #2F1836",
"4 	c #402933",
"5 	c #36503E",
"6 	c #3A2B4B",
"7 	c #5A125F",
"8 	c #2A2F3D",
"9 	c #3E083F",
"0 	c #3C2A36",
"a 	c #253156",
"b 	c #5A5633",
"c 	c #274444",
"d 	c #4C4A36",
"e 	c #57352C",
"f 	c #522441",
"g 	c #281624",
"h 	c #300834",
"i 	c #520833",
"j 	c #316245",
"k 	c #442730",
"l 	c #674128",
"m 	c #4F0927",
"n 	c #94596A",
"o 	c #49082B",
"p 	c #254443",
"q 	c #6D2B4A",
"r 	c #51331D",
"s 	c #181C40",
"t 	c #490664",
"u 	c #543329",
"v 	c #182E43",
"w 	c #7D461C",
"x 	c #183F46",
"y 	c #844717",
"z 	c #A6723E",
"A 	c #183F45",
"B 	c #A2ABB3",
"C 	c #262E4E",
"D 	c #184046",
"E 	c #303E59",
"F 	c #182F43",
"G 	c #225B52",
"H 	c #404D68",
"I 	c #244E51",
"J 	c #253F50",
"K 	c #281C4D",
"L 	c #184E49",
"M 	c #A2A4B2",
"N 	c #184E48",
"O 	c #195C4A",
"P 	c #2D064E",
"Q 	c #600479",
"R 	c #3E1949",
"S 	c #40055E",
"T 	c #4F1857",
"U 	c #6E0483",
"V 	c #51056C",
"W 	c #AB9BB8",
"X 	c #23064E",
"Y 	c #2D055E",
"Z 	c #461864",
"` 	c #36056C",
" .	c #3E1857",
"..	c #7A038E",
"+.	c #551764",
"@.	c #7A1681",
"#.	c #4C038E",
"$.	c #3E0479",
"%.	c #452944",
"&.	c #391746",
"*.	c #421654",
"=.	c #57352B",
"-.	c #AE9BBE",
";.	c #7D02A7",
">.	c #781778",
",.	c #753855",
"'.	c #7C3766",
").	c #3E046C",
"!.	c #450384",
"~.	c #3D3C62",
"{.	c #412B63",
"].	c #5B2866",
"^.	c #351949",
"/.	c #36055E",
"(.	c #640397",
"_.	c #5B0484",
":.	c #640384",
"<.	c #672866",
"[.	c #831682",
"}.	c #752777",
"|.	c #5F038E",
"1.	c #7B0297",
"2.	c #4D0479",
"3.	c #460483",
"4.	c #58028E",
"5.	c #5B166F",
"6.	c #404C6F",
"7.	c #40826E",
"8.	c #483A52",
"9.	c #2A5B5E",
"0.	c #3C4A49",
"a.	c #542951",
"b.	c #492841",
"c.	c #55254B",
"d.	c #450478",
"e.	c #6C276F",
"f.	c #6E2866",
"g.	c #560479",
"h.	c #63176F",
"i.	c #70038D",
"j.	c #47046C",
"k.	c #6C176F",
"l.	c #6B5582",
"m.	c #5A4A78",
"n.	c #3F584B",
"o.	c #74029F",
"p.	c #823766",
"q.	c #5F3438",
"r.	c #63147F",
"s.	c #581575",
"t.	c #602866",
"u.	c #6E1591",
"v.	c #5D0297",
"w.	c #720396",
"x.	c #671779",
"y.	c #642A6D",
"z.	c #612B8B",
"A.	c #4E4A6A",
"B.	c #7C5374",
"C.	c #80387B",
"D.	c #7C4978",
"E.	c #597641",
"F.	c #4B1A6B",
"G.	c #421746",
"H.	c #663444",
"I.	c #78325E",
"J.	c #663344",
"K.	c #5C2951",
"L.	c #8B2777",
"M.	c #5F3C80",
"N.	c #443C59",
"O.	c #5C3B6B",
"P.	c #6D4A7D",
"Q.	c #78297E",
"R.	c #5C2657",
"S.	c #6A295C",
"T.	c #5E1864",
"U.	c #477852",
"V.	c #7B556B",
"W.	c #754872",
"X.	c #6E3A7B",
"Y.	c #76396C",
"Z.	c #461764",
"`.	c #36046C",
" +	c #4D263F",
".+	c #4D263E",
"++	c #55264C",
"@+	c #373D4D",
"#+	c #3C5959",
"$+	c #394B59",
"%+	c #76475E",
"&+	c #501976",
"*+	c #221B50",
"=+	c #450484",
"-+	c #2B1B50",
";+	c #292D3D",
">+	c #382D5E",
",+	c #774C23",
"'+	c #212D51",
")+	c #473F2F",
"!+	c #777721",
"~+	c #86881D",
"{+	c #C2C860",
"                                                                                                                                ",
"  . . . . . . . . . . . . . . . . . . . . . . . . . . . . . . . . . . . . . . . . . . . . . . . . . . . . . . . . . . . . . .   ",
"  . . . . . . . . . . . . . . . . . . . . . . . . . . . . . . . . . . . . . . . . . . . . . . . . . . . . . . . . . . . . . .   ",
"  . . . . . . . . . . . . . . . . . . . . . . . . . . . . . . . . . . . . . . . . . . . . . . . . . . . . . . . . . . . . . .   ",
"  . . . . . . . . . . . . . . . . . . . . . . . . . . . . . . . . . . . . . . . . + + . . . + . . + . . . . . + + + . . @ . .   ",
"  . . . . . . . . . . . . . . . . . . . . . . . . . . . . . # . . . . . . . . . + . . $ % . + . + & . . + . % . + . + + @ * .   ",
"  . . . . . . . . = . . . . . . . . . . . . . . . . . . . . . . . . . . . . . . + $ + @ - ; . > . . $ @ @ + . + . @ + + @ + +   ",
"  . . . . . . . . . . . . . . . . . . . . . . . . . . . . . . . . . . . . . . . + + $ @ ; , * . ' @ @ . . ) . ! . + @ . % * % ~ ",
"  . . . . . . . . . . . . . . . . . . . . . . . . . . . . . . . . . . . . . . . + * $ { ] ) & $ ^ ] . $ @ / ( @ @ _ : < . + ; [ ",
"  . . . . . . . . . . . . . . . . . . . . . . . . . . . . . . . . . . . . . + . } @ | ] . 1 ) ] 2 $ 3 4 ) . 5 3 . 6 * ) 7 8 .   ",
"  . . . . . . . . . . . . . . . . . . . . . . . . . . . . . . . . . . . . + 9 . . 0 a b 4 1 . / 3 $ c d 8 3 . : e . . 3 f . . g ",
"  . . . . . . . . . . . . . . . . . . . . . . . . . . . . . . . . . . . . h i h . + . 3 3 j k 3 3 . @ 3 | : . 3 : . l . 3 . 3 g ",
"  . . . . . . . . . . . . . . . . . . . . . . . . . . . . . . . . . . # h m n o 9 l % . p . | | . | . + . 3 % . . q 3 k 3 . | r ",
"  . . . . . . . . . . . . . . . . . . . . . . . . . . . . . . . . . . . . h i h . 3 3 | . e . . . 3 3 | + . . , . + % 3 3 . .   ",
"  . . . . . . . . . . . . . . . . . . . . . . . . . . . . . . . . . . . . . h . . . | 3 3 3 . . . . . . + . , . + . . % 3 3 3   ",
"  . . . . . . . . . . . . . . s . . . . . . . . . . . . . . . . . . . . . . # . . . . . . . . . . . . . . % % . + t + . . . .   ",
"  . . . . . . . . . . . . . s s . . s . . . u . . . . . . . . . . . . = = = = . . . . . . . . . . . . . . . + + . % . . . . .   ",
"  . . . . . . . . . . . . . s . . v s . . u w u . . . . . . . = = = = . . . = . . . . . . . . . . . . . . . . . . + . . . . .   ",
"  . . . . . . . . . . s . . s . x . . . u y z w u . . = = = = . . . . . . . = . . . . . . . . . . . . . . . . . . . . . . . .   ",
"  . . . + % + . . . . . . . A . s . . . = u w u = = = . . . . . . . . . . . = . . . . . . . . . . . . . . . . . # . . . . . .   ",
"  . . + , + % % s s v . B A s s . . = = . . u . . . . . . . . . . . . . . . . = . . . . . . . . . . . . . . . . . . . . . . .   ",
"[ + . . , , + C v . s . D . s . . = . . . . . . . . . . . . . . . . . . . . . = . . . . . . . . . . . . . . . . . . . . . . .   ",
"  % . % + . C . E . s s F s s = = . . . . . . . . . . . . . . . . . . . . . . = . . . . . . . . . . . . . . . . . . . . . . .   ",
"  + + s C G v . s v s . F v = . . . . . . . . . . . . . . . . . . . . . . . . = . . . . . . . . . . . . . . . . . . . . . . .   ",
"  s s H s I J F v x F . = = v . . . . s . . . . . . . . . . . . . . . . . . . = . . . . . # . . . . . . . . . . . . . . . . .   ",
"  . s s K . F F . s s = . s . s . s . . s . . . . . . . . . . . . . . . . . . = . . . . . # . . . . . . . . . . . . . . . . .   ",
"  . . F v L x v s . M . . . . v . . . . . . . . . . . . . . . . . . . . . . . . = . . . . . . . . . . . . . . . . . . . . . .   ",
"  . . . A x N O . . . . . . . . . . . . # . . . . . . . . . . . . . . . . . . . = . . . . . . . . . . . . . . . . . . . . . .   ",
"  . . . s . . . . . . . . . . . . . . . . . . . . . . . . . . . . . . . . . . . = . . . . . . . . . . . . . . . . . . . . . .   ",
"  . . . . . . . . . . . . . . . . . . . . . . . . . . . . . # . . . . . . . . . = . . . . . . . . . . . . . . . . . . . . . .   ",
"  . . . . . . . . . . . . . . . . . . . . . . . . . . . . . . . . . . . . . . . = . . . . . . . . . . . . . . . . . . . . . .   ",
"  . . . . . . . . . . . . . . . . . . . . . . . . . . . . . . . . . . . . . . . = . . . . . . . . . . . . . . . . . . . . . .   ",
"  . . . . . . . . . . . . . . . . . . . . . . . . . . . . . . . . . . . . . . . = . . . . . . . # . . . . . . . . . . . . . .   ",
"  . . . . . . . . . . . . . . . . . . . . . . . . . . . . . . . . . . . . . . . . = . . . . # . . . . . . . . . . . . . . . .   ",
"  . . . . . . . . . . . . . . . . . . . . . . . . . . . . . . . . . . . . . . . . = . . . . . . . . . . . . . . . . . . . . .   ",
"  . . . . . . . . . . . . . . . . . . . . . . . . . . . . . . . . . . . . . . . . = . . . . . . . . . . . . . . . . . . . . .   ",
"  . . . . . . . . . . . . . . . . . . . . . . . . . . . . . . . . . . . . . . . . = . . . . . . . . . . . . . . . . . . . . .   ",
"  . . . . . . . . . . . . . . . . . . . . . . . . . . # . . . . . . . . . . = = = # . . . . . . . . . . . . . . . . . . . . .   ",
"  . . . . . . . . . . . . . . . P Q P R . . . . . . . . . . . . . . = = = = . = . . . . . . . 3 . . . . . . . . . . . . . . .   ",
"  . . . . . . . . . . P . . P . P S T U $ . V W . . . . . . = = = = . . . X = Y . . . . . . 3 . . 3 . . . . . . . . . . . . .   ",
"  . . . . . . . . . P P P P . # Q P Q V . V P S S V = = = = Y X Y . . . . X = Z `  .X 3 e 3 | . e k . . . . . . . . . . . . .   ",
"  . . . . . . . . ... . S . S P P V T +.Q @.= = = = S . X #.. Y . . . Y Y = Y $.Y %.$ X &.*.X . =.3 . . . . . . . . . . . . .   ",
"  . . . . . . P . S U V S . Q X X V -.= = = ;.>.,.0 P T '.Y $.).!.. Y . = Z %.~.{.].^.X *.e | &.3 e . | . . . . . # . . . . .   ",
"  . . . . . . . . P Q P V X /.(.).$._.= = :.:.<.[.}.P |.1.2.3.4.` 5.R = !.6.7.8.9.0.a.$ b.Y c.k . . 3 3 . . 3 3 . . . . . . .   ",
"  . . . . . . . S . S S |.Y Y ` d._.Y $.e.= = = f.S g.h.. g.i.j._.@.= X +.k.l.m.n.o.p.Y ^.b.e q.. . 3 3 3 3 3 . . . . . . . .   ",
"  . . . . . . . . . . ).X . X X r.s.` $.` t.u.$.= = = = U v.w.).).x.= y.z.A.B.C.D.E.g.F.F.^.. *.Y . Y X 3 . . . . . . . . . .   ",
"  . . . . . . . . . P G.X H.I.` X s.$.` #.Y J.^.^.%.P V = = = Q K.= U L.,.M.N.O.P.K.Q.>.+.X ^.. . . X X X . . . . . . . . . .   ",
"  . . . . . . . . . . . X q.R.X ` &.3 . X $.X *.3 4 P P . . . = = S.T.[.Q.U.V.W.X.Y.T...Y Z.`.$.Y X $.X . . . . . . . . . . .   ",
"  . . . . . . . . 3 | . 3 3  +.+++3 . Y . 3 X &.3 3 . . . . P . # V Q P >.@+#+y.V $+%+&+*+Z.`.. Y =+X . . . . . . . . . . . .   ",
"  . . . . . . . # . . 3 . 3 . 3 | 3 . . . . . 3 3 3 . . . . . . . . . P P -+;+$ >+T.j.X X . . . ` . X . . . . . . . . . . . .   ",
"  . . . # . . . . . . ,+. . | 3 3 . . . . . . . . . . . . . . . . . . . . . . . s v s '+Y Y X . $.. . . . . . . . . . . . . .   ",
"  . . . . . . . . . . . 3 . )+. . . . . . . . . # . . . . . . . . . . . . . . . u s . s . . X . X . . . . . . . . . . . . . .   ",
"  . . . . . . . . . . . . )+!+)+. . . . . . . . . . . . . . . . . . . . . . . u w u . . . . . . . . . . . . . . . . . . . . .   ",
"  . . . . . . . . . . . )+~+{+!+)+. . . . . . . . . . . . . . . . . . . . . u y z w u . . . . . . . . . . . . . . . . . . . .   ",
"  . . # . . . . . . . . . )+!+)+. . . . . . . . . . . . . . . . . . . . . . . u w u . . . . . . . . . . . . . . . . . . . . .   ",
"  . . . . . . . . . . . . . )+. . . . . . . . . . . . . . . . . . . . . . . . . u . . . . . . . . . . . . . . . . . . . . . .   ",
"  . . . . . . . . . . . . . . . . . . . . . . . . . . . . . . . . . . . . . . . . . . . . . . . . . . . . . . . . . . . . . .   ",
"  . . . . . . . . . . . . . . . . . . . . . . . . . . . . . . . . . . . . . . . . . . . . . . . . . . . . . . . . . . . . . .   ",
"  . . . . . . . . . . . . . . . . . . . . . . . . . . . . . . . . . . . . . . . . . . . . . . . . . . . . . . . . . . . . . .   ",
"  . . . . . . . . . . . . . . . . . . . . . . . . . . . . . . . . . . . . . . . . . . . . . . . . . . . . . . . . . . . . . .   ",
"  . . . . . . . . . . . . . . . . . . . . . . . . . . . . . . . . . . . . . . . . . . . . . . . . . . . . . . . . = . . . . .   ",
"  . . . . . . . . . . # . . . . . . . . . . . . . . . . . . . . . . . . . . . . . . . . . . . . . . . . . . . . . . . . . . .   ",
"  . . . . . . . . . . . . . . . . . . . . . . . . . . . . . . . . . . . . . . . . . . . . . . . . . . . . . . . . . . . . . .   ",
"                                                                                                                                "};
