/* XPM */
static char * north_xpm[] = {
"64 64 90 1",
" 	c #100529",
".	c #18073D",
"+	c #4A3F41",
"@	c #665E42",
"#	c #21113D",
"$	c #746A8A",
"%	c #9D9971",
"&	c #FFFFFF",
"*	c #270648",
"=	c #350553",
"-	c #20084C",
";	c #3A0660",
">	c #2E0756",
",	c #450668",
"'	c #27085A",
")	c #171E3A",
"!	c #38086E",
"~	c #2E0966",
"{	c #3C0A84",
"]	c #27095A",
"^	c #2D0966",
"/	c #163238",
"(	c #3E076C",
"_	c #39086E",
":	c #330763",
"<	c #154436",
"[	c #145534",
"}	c #330A71",
"|	c #251F54",
"1	c #29465C",
"2	c #136432",
"3	c #127D2F",
"4	c #737888",
"5	c #251D44",
"6	c #1B4641",
"7	c #149C30",
"8	c #145533",
"9	c #137D2F",
"0	c #154535",
"a	c #390A7B",
"b	c #2A205F",
"c	c #2F2069",
"d	c #233241",
"e	c #23334F",
"f	c #1E5546",
"g	c #137130",
"h	c #1E5646",
"i	c #137131",
"j	c #323254",
"k	c #1B4541",
"l	c #ABA5B9",
"m	c #4F4440",
"n	c #154536",
"o	c #146432",
"p	c #2B1B39",
"q	c #254235",
"r	c #254335",
"s	c #335132",
"t	c #3C2C36",
"u	c #816BA3",
"v	c #1B7137",
"w	c #3F5E30",
"x	c #2B7B39",
"y	c #391A43",
"z	c #423E3C",
"A	c #283037",
"B	c #311A49",
"C	c #45194D",
"D	c #1B872D",
"E	c #206231",
"F	c #311C4E",
"G	c #482B3F",
"H	c #3C2D36",
"I	c #4B3D33",
"J	c #454E31",
"K	c #442754",
"L	c #6A1769",
"M	c #43414B",
"N	c #532B48",
"O	c #6C4A3F",
"P	c #501955",
"Q	c #693B49",
"R	c #938A84",
"S	c #3B1864",
"T	c #206331",
"U	c #3A4145",
"V	c #563C3B",
"W	c #4B3C33",
"X	c #5B1769",
"Y	c #492C3F",
"                                                                ",
" ...........................................+..@.+.#.$......... ",
" .....$.......................................@@@.............. ",
" .........................................$..@@%@@............. ",
" ......................$....................#.@@@.............. ",
" ..............................................&.#............. ",
" .............................................&&.........$$.... ",
" ............................................&&#.+............. ",
" ...*..*.*...................................&&................ ",
" ....****=*=...--...........................&&................. ",
" ....=...=..=.--..$........................&.&................. ",
" ...*..**.*;>,->'............))...........&..&................. ",
" ...*=.*=.>'!~{--]^-.........))/.........&).&..)............... ",
" ........*(-'_:^--......>.')<.</<[)//).)&)).&..)............... ",
" .........>*;:}:---....=':!-|1[.[<2//3[/&/<&./4..)............. ",
" .........-^(-^.-.......*'5/6<7)</[8[90&/.0&/)..).............. ",
" ..........a^.-.........''bcdef)/<gg8[&/)[)&))/)............... ",
" ...........--.........=.-]<h)<.0[/i9&g[/)&....)............... ",
" ......................*5.)jk/)[<.//&0))<.&....)............... ",
" ........................*).0//.<.)/&)..)&..................... ",
" .........................)./)./)))&.....&.....$............... ",
" .........................)).)....&......&...........$......... ",
" ......$...................).....&......&...................... ",
" ...............................&.......&...................... ",
" ...............................&......&....................... ",
" ..............................&.......&....................... ",
" .............................&........&................$...... ",
" .................$..........&........&........................ ",
" .......................#...&.........&........................ ",
" .....................#....&.........&......................... ",
" ....................##....&.$.......&...................l..... ",
" .....................+...&..........&......................... ",
" ....................+..@&..#...$...&.......................... ",
" ......................@@@.+.$......&.......................... ",
" .....................@@%@@+.......&........................... ",
" ....................#.@@@.........&........................... ",
" .........$.............@.#........$........................... ",
" .........$.............m..........&........................... ",
" .......................#.+........&........................... ",
" .................................&.$.........)................ ",
" .................................&....../.../).)...$)......... ",
" .............-'.................&......)/...../...)........... ",
" .............^.-................&....n0o[)[)/../../...)....... ",
" ........pp....-.-..............&...)n)2/<q*r*s5)*...)......... ",
" ..........t--'-}-u*............&....0/<v=wpx.yzy.yp.Ap/....... ",
" ..........pppB']--.C*=........&...)//[2D/EFGypHHpp.I..J....... ",
" ...........t--.KppIL=*........&..))).//rqMNOPQtHCyHRH..p...... ",
" ........p..pB-S.B>..t**......&...)./.)TUG.VppWy..p..pI........ ",
" ..........ppp.''-X:yp........&......0<).5.pyY..pGpHHH.p....... ",
" .$..........B.-'-=.G=.......&......)...[.......t..pItp........ ",
" ............p...............&......................p.p........ ",
" .............-.............&.................................. ",
" ...$..........-....$.......&.................................. ",
" ..........................&................................... ",
" ......................$...&................................... ",
" ......$.........$........&.................................... ",
" ......................#..&.................................... ",
" ....................#...&..................................... ",
" ...................##...&#...................................$ ",
" .......................&...................................... ",
" ......................@&..#................................... ",
" .....................@@@...................................... ",
" ....................@@%@@..................................... ",
"                                                                "};
