/* XPM */
static char *fb0b36d20eed46c78b7ba395b5a781fdI8jfile8UnKm9LDh[] = {
/* columns rows colors chars-per-pixel */
"64 64 210 2 ",
"   c #0182FF",
".  c #0A86FF",
"X  c #048BFF",
"o  c #0A8CFF",
"O  c #138CFF",
"+  c #1A8FFF",
"@  c #0693FF",
"#  c #0C93FF",
"$  c #0B9AFF",
"%  c #1394FF",
"&  c #1B93FF",
"*  c #129BFF",
"=  c #1B9CFF",
"-  c #2294FF",
";  c #2995FF",
":  c #239CFF",
">  c #2C9CFF",
",  c #329CFF",
"<  c #0DA3FF",
"1  c #0EACFF",
"2  c #16A2FF",
"3  c #1AA5FF",
"4  c #13ACFF",
"5  c #1BABFF",
"6  c #15B1FF",
"7  c #1DB3FF",
"8  c #14BCFF",
"9  c #1CBDFF",
"0  c #24A4FF",
"q  c #2BA4FF",
"w  c #26A9FF",
"e  c #2AADFF",
"r  c #34A4FF",
"t  c #3BA5FF",
"y  c #35ACFF",
"u  c #3BABFF",
"i  c #22B5FF",
"p  c #2DB1FF",
"a  c #25BBFF",
"s  c #29BEFF",
"d  c #33B4FF",
"f  c #3CB3FF",
"g  c #34BAFF",
"h  c #3ABDFF",
"j  c #43A4FF",
"k  c #4AA7FF",
"l  c #44AAFF",
"z  c #4CACFF",
"x  c #52ADFF",
"c  c #42B5FF",
"v  c #4DB4FF",
"b  c #45BBFF",
"n  c #4ABEFF",
"m  c #51B3FF",
"M  c #5CB5FF",
"N  c #51B9FF",
"B  c #5BBDFF",
"V  c #66B6FF",
"C  c #64BBFF",
"Z  c #6CBCFF",
"A  c #79BFFF",
"S  c #1EC4FF",
"D  c #16C8FF",
"F  c #1BD2FF",
"G  c #1DDEFF",
"H  c #21C4FF",
"J  c #2BC5FF",
"K  c #25CBFF",
"L  c #2CCBFF",
"P  c #32C5FF",
"I  c #3DC2FF",
"U  c #31CCFF",
"Y  c #3ACDFF",
"T  c #2AD3FF",
"R  c #35D3FF",
"E  c #3BD4FF",
"W  c #36D9FF",
"Q  c #3BDBFF",
"!  c #1EE1FF",
"~  c #21EBFF",
"^  c #35E1FF",
"/  c #3EE3FF",
"(  c #3EECFF",
")  c #24F4FF",
"_  c #26FCFF",
"`  c #28FFFF",
"'  c #43C6FF",
"]  c #4DC1FF",
"[  c #44CAFF",
"{  c #4ACDFF",
"}  c #54C5FF",
"|  c #5DC1FF",
" . c #55CAFF",
".. c #5BCCFF",
"X. c #42D5FF",
"o. c #4CD2FF",
"O. c #4BDDFF",
"+. c #52D4FF",
"@. c #5ED0FF",
"#. c #54DBFF",
"$. c #5CDDFF",
"%. c #63C5FF",
"&. c #6CC2FF",
"*. c #66CBFF",
"=. c #6BCBFF",
"-. c #73C5FF",
";. c #7CC3FF",
":. c #73CFFF",
">. c #7ACAFF",
",. c #62D2FF",
"<. c #6BD3FF",
"1. c #63DCFF",
"2. c #6CDBFF",
"3. c #74D1FF",
"4. c #7CD3FF",
"5. c #72DEFF",
"6. c #7ED8FF",
"7. c #44E4FF",
"8. c #4BE5FF",
"9. c #44EAFF",
"0. c #4CEBFF",
"q. c #56E2FF",
"w. c #5CE3FF",
"e. c #51EDFF",
"r. c #5EEAFF",
"t. c #46F3FF",
"y. c #4AF6FF",
"u. c #4EFDFF",
"i. c #53F2FF",
"p. c #55F9FF",
"a. c #5CF9FF",
"s. c #61E3FF",
"d. c #69E6FF",
"f. c #64ECFF",
"g. c #6BECFF",
"h. c #73E1FF",
"j. c #7BE5FF",
"k. c #72EDFF",
"l. c #7CEAFF",
"z. c #64F3FF",
"x. c #6BF4FF",
"c. c #63FCFF",
"v. c #6DFCFF",
"b. c #73F5FF",
"n. c #74FCFF",
"m. c #7BFDFF",
"M. c #8AC5FF",
"N. c #84CBFF",
"B. c #8CCDFF",
"V. c #94CBFF",
"C. c #99CFFF",
"Z. c #84D1FF",
"A. c #8DD6FF",
"S. c #83DBFF",
"D. c #8BDCFF",
"F. c #91D2FF",
"G. c #9BD2FF",
"H. c #95DBFF",
"J. c #9BDDFF",
"K. c #A5D8FF",
"L. c #ABDAFF",
"P. c #B5DEFF",
"I. c #84E7FF",
"U. c #8CE3FF",
"Y. c #82EDFF",
"T. c #92E5FF",
"R. c #9EE1FF",
"E. c #95EAFF",
"W. c #9BECFF",
"Q. c #86F2FF",
"!. c #8BF5FF",
"~. c #83FCFF",
"^. c #8DFCFF",
"/. c #93F5FF",
"(. c #9BF4FF",
"). c #94FCFF",
"_. c #9BFDFF",
"`. c #A5E3FF",
"'. c #A8E7FF",
"]. c #A3ECFF",
"[. c #ACEAFF",
"{. c #B4E4FF",
"}. c #BAE6FF",
"|. c #B3ECFF",
" X c #BEEAFF",
".X c #A3F3FF",
"XX c #A9F6FF",
"oX c #A3FDFF",
"OX c #ADFAFF",
"+X c #B6F2FF",
"@X c #BCF3FF",
"#X c #B3FDFF",
"$X c #BBFEFF",
"%X c #C7E8FF",
"&X c #C3EDFF",
"*X c #D5EDFF",
"=X c #D9EDFF",
"-X c #C1F5FF",
";X c #CCF2FF",
":X c #C5FAFF",
">X c #CCFDFF",
",X c #D3F5FF",
"<X c #DCF3FF",
"1X c #D1FDFF",
"2X c #DBFAFF",
"3X c #E5F3FF",
"4X c #E3FDFF",
"5X c #EDFCFF",
"6X c #F2FCFF",
"7X c #FBFEFF",
/* pixels */
"n.g X $ $ 7.m.~.a.S   X # X % % X X X   @ J v.).$X>X>X:XOX^.n.u._ Q n.).XX!.n.U <     X $ o o =         T c.n.Q   X X       ^ v.",
"!.,.{ 7.7.m._._.x.5 @ 2 X o o #       X L x.).#X@X;X>X$X(.~.v.u.) 2 [ Q.T.j.x.i X   X     X o = % % @   U n.).r.X     X X 4 p.m.",
"$X#X).m.m.m.~._.n.s X $ X   X X X   @ Q n.!.U.Z.N.z M T.Q.1.r.u.) 3 * { 2.b.0.4     X X     X $ % # # X e !.#XY.*   o % s 0.m.oX",
"$X_.m.n.p.0.i.m.v.W       X     X 7 9.n.!.S.& > x - O %.j.{ O.u.~ * X 5 ' g.8.<   X X X @ X # % % X o o q W.>X.Xy o > @.x.m.(.#X",
").m.p.L 4 $ 4 7.m.a.K 7 = o $ H Q i.n.!.*., . k ;.k   N <.d X.u.D     X 3 +.w.5       X # X o O O   o & | >X4X>XW.E.W.#X).oX$XOX",
"n.p.F         $ 0.m.c.x.j.w.9.a.n.m.).6..   ; A G.Z - v %.d q.u.D       o b s.P <     X # o o o & O & - -.4X4X>X$X_.).).$X$X$X_.",
"n.Q $   X X X X o.).~.).#X).n.~.!.!.XXZ.+ z M.V.V.B.-.4.S.h.v.u.G o   X   f 5.$.R 4 X X o X X   . & > - Z 2X1X$X#Xv.r.+.<.XX$X_.",
"n = o X X X o o ..#XoX$X^.h.j.Y.XXXX|.Z j G.L.V x `.#X#XoX^.n.u.~ $   X X p <.5.r.J X       X   o q r & N.>X$X(.<.a 2 X % <.OXW.",
"o = 2 X   X   o ,.#X$X).w.e e } .X>X;XV.A L.L.Z >.#X$X_._.m.v.u._ R @   X 5 o.<.w.R $     X $ = 0 v l , J.#X_.1.0     < P g.Q.v ",
"& 0 % * X X o : D.#XQ.o.5 o * p Q.$X>X2X<X<X,X@X#X_.).n.Q.f.i.u.` u.K   X 7 { ,.2.$.Y 4 o # = y v M x M W./.w.i # X X J f.).6.- ",
"- = % *   X % 5.#X^.I $     X $ r._.$X>X2X,X1X$X_.b.+.R [ w s K ) u.z.K 5 h } =.4.5.$.Q [ g c r C Z >..XY.[ * X   X s f.).#X&.. ",
"& % X X   6 0.m.).h.o     X # % h.$X>X2X}.|.$X).f.s # @ # # X $ < U z.c.x.h.=.v z D./.m.).!.T.H. X*X;X@X=.O X 5 K / x.).$X:XM O ",
"O o     X Q n.).).{   # o X X   S.:X>X&XA.W._.n.Q @     X #   X   X / n.).OXJ.F.H.:X$X_.$X$X1X4X6X6X<XK.t & = +.a.n.).#X>X'.;   ",
"  o 3 S Q n.).).b.i   * o     O ].#XXX[.{.|.OX^.#.$   X X % o @ X X g Q.#X>X2X>X-XOX!.Y.Q.XX>X4X6X6X*XC.Z J.T./.m.m._.#X>X;Xj X ",
",.h.b.c.n.).j.m.i.<   X   X o v (.).Q.T.[.&X:X#XQ.p # % * * # X X X = h.OX:X>XXXU.2.{ [ ' ,.E.:X4X3X=X%X{.@XXX!.f.f.b._.$X1XE.3.",
"n.).).m._.#XW.).x.5   X o q =.E.m.f.w.h.T.+X>X$X_.h.e $ o # # X   X g !.$X@XS...b g 5 2 2 d 5.XX>X,X%X&X|..XQ.+.a i E n._.$XoX).",
"9.#.,.5..X-X:X$X).o.5 e ..U.(.~.i.J i p } 6..X).).b.O.5   X     X * +.).XX=.y e e * X   X i #.^.$X+XL.R.W.Y.w.7 X   < 0.m._.~.n.",
"X   o : c >.&X>X#XQ.w.5.XXoX~.c.K     * g n n $.z.n.n.R X # 2 6 F 9.v.).W.y = $ #     X $ [ Y._.$XJ.z V J.E...%     $ f.).m.0.L ",
"  X 2 p q u &.&X>X$X).OX>X$X).g.P < 5 I n b w # i 7.m.n.9.l.q.9._ u.v.).).' X @       # [ Y./.).!.6.t O B.[.4.&   5 { Q.m.i.S   ",
"X * e c : % > A.,X>X$X>X2X-XT.2.{ P I  .] h 5 X   < 7.m.n.^.v.y.~ L o.!.#X2.w 3   X e #.)._.k.r.d.5.B ; -.}.`.%.b +.Y.XX).f.5   ",
"# 3 f y % X o | [.,X>X2X%XG.N.=.} d q r y d i @     J n.oX~.8.9 X   o ..XXXXQ.f.Q q.Q.)._.k.X.3 s s.j.:.4.`.}.`.U.Y.XX:X(.b % X ",
"% q e = X     ] U.+X2X<X*XP.F.&.| f & & > q p * X   4 i.m.p.8     X   % h.#X#X).n.).$X_.~.X.$   6 e.m.(.(.].|.&X+X.X:X>X.X: o $ ",
"# = 2 X   X 3 o.h.W.>X2X5X3XC.Z C B z z l r f 3 X   i x.m.t.$   @ $ X w l.#XOX#X).OX@X#XoXk.g H e.m._.).~._.].|.;X:X>X$X/.h X X ",
"X 2 <     5 #.l.6.H.2X6X7X6XV.j , > j V M z v y % o g !.).r.#   X     L v.).).).Q.2.N >.#X_.~.a.m.!.f.f.i.k.I.4.R.[.W.Y.g.R X   ",
"  @ #   $ [ j.U.Z.J.2X6X5X5X}.V O   O j k j r & % w ,.XX).x.5       < 7.m.n.x.w.I = & B :X$X).f.,.I i 7 9 X.$.<.S.H.%. .s.e.4   ",
"K i e J o.j.U.A.G.{.1X4X,X;X2XR.z . O > - ; ; & N Y.#X).^.m.O.9 8 K 0.m.n.y.7 $ X X e <.XX+XB q 0 5 $     7 X.d.j.3.> O } g.0.T ",
"a.b.Q.f.Y.6.V z -.-X$X>X+X:X:XOXS.-     O . & B _.).).).n.m.n.u._ u.n.n.u.8   X   $ Q x.h.u r & = 5 @     # [ Y.U.m & O l I.m.c.",
"m.!.].Y.].-.t &.T.OX).#X.XW.W.Q.Q.l.3.%.4.A.S.Y.n.f.q.+.Q 7.c.u.` u.n.f.I X   X   S i.f.] . : : q w $ X   X p 2.:.r & . r D.(.^.",
"z.1.<.j.5.%.=.E._.).n.Q.@.q & e r.n.).).OXOX_.m.9.2 o     @ 8.u._ u.x.g X       X R x.o.%   & : : = $ X     * [ f .     : *.^.n.",
"3 P b w w @.Q.~.m.r.P g o       5 Q f.x.^.).~.y.8           K u.` u.R X       @ L s.R $   % % * % % % o X X 0 #.{ %   # d $.w.U ",
"  ^ 8.s P x.v.z.0.7 X X   X # X   X * J z.n.v.7.@   # @ @   6 y.` p.<     X 4 O.v.i.1   X # # * # # 2 $ X   % r.i.a o # i P i   ",
"  u.u.u.y.u.u.^ 9     $ X   @ < X X   X ^ u.u.T     X @ $ X 6 u.u.T       9 t.u.u.( X   @   @ @ @ @ $ X     H u.u.t.T T T K K   ",
"_ G _ ` ) ) _ D <     X @ X @ $ X X     F ` ` G   X X       ! u._ 8 X $ $ ! ` ` _ D   X @ X @ @ X X X   @ D ) ` ` _ ` ` ` _ _ _ ",
"y.2 L t./ / t.i X   X     X o * # $ @   U u.u./ o     X X 4 v.u.) R U / / u.u.u.y.5 @ 2 X X # #       X L y.u.u.y.t.u.u.y.y.u.u.",
"x.w * { #.x.0.4     X X     X $ % # # X e x.n.f.*   o % s 0.n.u.` u.n.n.n.n.n.n.n.s X $ X   X X X   @ Q v.x.q.o.[ w d w.f.#.f.n.",
"r.* X 5 ' g.8.<   X X X @ X # % % X o o q Y.).Q.y o : @.x.).v.y._ u.n.n.p.0.i.m.v.W       X     X 7 9.n.!.<.% = y % . } h...2.).",
"L     X 3 +.w.5       X # X o O O   o & B OX$X#XW.T.Y.#X_.).n.y._ u.p.L 4 $ 4 7.m.a.K 7 = o $ H / i.n.!.*.> . r | t   v 3.v ,.n.",
"I       o b s.P <     X # o o o & O & - -.>X>X>X$X_.).)._.^.n.u._ u.F         $ 0.m.c.x.j.w.9.a.n.m.^.6..   - C Z.C & m -.v U.).",
"2.o   X   f 5.$.R 4 X X o X X   . & > - Z 2X>X$X#Xx.f.o.5.~.n.u._ W $   X X X X o.).~.).#X).n.~.!.!.XXZ.+ z ;.N.N.B.-.Z.L.{.:X#X",
"Y.*   X X p <.h.r.J X       X   o q r & N.>X$X(.2.a 2 X % 1.v.( 8 * o X X X o o ..#XoX$X^.h.j.Y.XXXX|.Z j G.K.V x `.:X#X:X2X>X$X",
"n.[ @   X 5 o.<.$.Y $     X $ = 0 v l , J.$X_.s.0     < P k.i.7 X $ * X   X   o ,.#X#X).w.e e } .X:X;XB.A L.L.Z >.#X#X_.#X>X$X_.",
"m.c.K   X 7 { ,.2.$.Y 4 o # = y v M x M W./.w.i # X X J f.n.Q @ @ * % * X X o : D.#XQ.o.5 o * p Q.$X>X2X<X<X,X@X#X_.).n.Q.W..X).",
"z.n.z.K 5 h } =.4.5.$.Q [ h c r C Z >..XY.[ * X   X a f.).n.J X @ * # *   X # 5.#X^.I $     X $ s.).$X>X2X,X1X$X_.b.+.R [ q n { ",
"3 U x.c.x.j.=.v z D./.m.).!.T.H. X*X;X@X=.O X 5 K / x.)._.n.a X @ $ X     6 0.m.).h.o     X # % h.$X>X2X}.|.$X).f.s # @ # # o % ",
"  X 7.n.).OXJ.F.H.:X$X_.$X$X>X4X6X6X<XK.t & = +.a.n.).#X).r.*   @ o     X Q n.).).{   o o X X X S.:X>X&XA.W._.n.Q @     X #   X ",
"X X g Q.#X>X2X>X-XOX!.Y.Q.XX>X4X6X6X*XC.Z J.T./.m.m._.#X).x.3 X   X 3 H Q n.).).b.i   * o     O ].#XXX[.{.|.OX).#.$   @ X % o # ",
"X o : U.:X2X>XXXU.2.{ [ ' ,.E.:X4X3X=X%X}.@XXX!.f.f.b._.oX^.q.T F / x.c.n.).j.m.i.<   X   X o v (.).Q.T.[.&X:X#XQ.p o % * * % o ",
"  X c XX>X@XS...b g 5 2 2 p 5.XX>X,X%X&X|..XQ.+.a i E n.#X).n.u._ u.n.m._.#XW.).x.5   X o q =./.~.f.w.h.T.+X>X$X).h.e $ o # $ X ",
"X * +.).OX=.y e e * X   X i #.).$X+XL.R.W.Y.w.7 X   < 0.m.^.v.u.~ Q o.2..X:X:X$X).o.5 e ..U.(.~.i.J i p } 6..X).).b.O.4   X     ",
"R f.).$X].y = $ #   X X # [ Y._.#XJ.z V J.E...%     $ f.oXm.e.K X   o : c >.&X>X#XQ.w.5.XXoX~.c.K     * g b n $.z.n.v.R X # 2 6 ",
"n.).OX#X).' X @       # ' Y./.^.!.6.t O B.[.4.&   5 { Q.m.i.S     X 2 p q u &.&X>X$X).XX>X$X).g.P < 5 I n b w # i 8.m.n.9.f.w.e.",
"9.[ @.XX#X2.w 3   X p #.)._.k.r.d.5.B ; -.}.`.%.b +.Y.XX).f.5   X * e c : % > A.,X>X$X>X2X@XT.2.o.P I  .] h 5 X   < 7.m.n.).m.a.",
"X   o ..XXXXQ.f.Q q.Q.)._.k.E 3 s 1.j.:.4.`.}.`.U.Y.XXOXQ.g $ X @ 2 p e % X o | [.,X>X2X%XG.N.=.} d q r y d i @     J n.).n.7.a ",
"  X   % h.#X#X).n.).$X_.~.X.$   6 e.m.(.(.].|.&X+X.X:X#XQ.= o @ @ 2 e = X     ] T.+X2X<X*XP.F.&.| f & & > q p * X   4 i.m.p.8   ",
"@ $ X w l.OXOX#X).OX@X#XoXk.g H e.m._.).~._.].|.;X:X>X$X!.h X X @ * 2 X   X 3 o.h.W.>X2X5X3XC.Z C B z z l r c 3 X   i x.n.t.$   ",
"X     L v.).).).Q.2.N >.#X_.~.a.m.!.f.f.i.k.I.4.R.[.W.Y.f.R X   X 2 <     5 #.l.6.H.2X6X7X6XV.j , > j M M z v y % o g !.).r.#   ",
"    < 7.m.n.x.w.I = & B :X$X).f.,.I i 7 9 X.$.<.S.H.%. .s.e.4     @ #   $ [ j.U.Z.J.2X6X7X6X}.V O   O j k j r & % w ,.XX).Q.w   ",
"a K 0.m.n.y.5 $ X X e <.XX+XB q 0 5 $     7 X.d.j.3.> O } k.e.T D 7 e J o.j.U.A.F.{.4X4X<X<X2X`.z . O > - ; ; & N Y.#X$X).).2.g ",
"n.c.m.n.u.8   X   $ Q x.h.u r & = 5 @     # ' Y.U.m & . y k.v.u._ y.x.f.l.S.M z ;.,X>X>X;X2X:X#XS.-     O O + B _.).).).n.m._.).",
").^.).f.I X   X   S i.f.] . ; : q w $ X   X e 5.:.t & . q 1.v.u._ t.f.Y.E.-.j -.R.:X#X#X+X|.].!.Q.Y.3.%.Z.F.S.Y.n.f.w.+.Q 7.n._.",
"_._.x.g X       X R g.{ %   - : : = $ X     * [ f .     :  .c.u.) Q o.h.S.-.B.|.OXOX^.Q.3.t & e r.n.).).$X$X_.n.9.2 o     @ / m.",
"^.n.W X       @ L r.R $   % & : & % % o X X 3 <.=.-   & c $.8.K < J h y u Z.@XOX).l.[ g o       5 Q f.x._._.m.y.8           K c.",
"m.y.<     X 4 Q n.y.1   X o % = % & 3 $ X   % Y..XC O & f I i     ^ 8.h } +X#X!.f.p X X   X # X   X * J b._.m.7.@   # @ @   6 a.",
"n.W       9 i.m.n.9.X   @   % & % % * X     J n.).(.6.<.+.Y K     u.n.^..X$X).w.a     $ o   % 2 X X   X 7.n.v.T     X # $ X i n."
};
