/* XPM */
static char *_f305afacfa94c629bea5d834ad6d6d91z1roGo6eEQqD43l[] = {
/* columns rows colors chars-per-pixel */
"64 64 43 1 ",
"  c gray28",
". c #484848",
"X c #4E4E4E",
"o c gray39",
"O c gray40",
"+ c #6A6A6A",
"@ c #6D6D6D",
"# c #727272",
"$ c #767676",
"% c gray47",
"& c #7C7C7C",
"* c #838383",
"= c gray53",
"- c #8B8B8B",
"; c #8D8D8D",
": c #929292",
"> c gray59",
", c #9B9B9B",
"< c #9F9F9F",
"1 c #A2A2A2",
"2 c #A7A7A7",
"3 c #AAAAAA",
"4 c #AEAEAE",
"5 c gray70",
"6 c #B4B4B4",
"7 c gray72",
"8 c gray",
"9 c gray76",
"0 c #C5C5C5",
"q c #CACACA",
"w c #CECECE",
"e c #D0D0D0",
"r c gray83",
"t c #DADADA",
"y c gray87",
"u c #E2E2E2",
"i c #E7E7E7",
"p c #E9E9E9",
"a c #EEEEEE",
"s c gray94",
"d c #F4F4F4",
"f c #F8F8F8",
"g c white",
/* pixels */
"75517iguy044>9y924pt0r01@$ggaur1<gis8q78<*406#,t4=,:#>tgiw4,3r9q",
"3&&fgggtu2:518s9:0ye0yw1;6sdreq54frq7w41><06,>1t4-7y17ggaa9tusw4",
"2;,gffutr,,<4p8,,548wyw29iiietswsiw80wq:,1q4184,535twggir00ifp00",
"-,5sdpuuw:<1:t08w>53964-,q7qyeiwsipt969538writ4%7732:9rt0419r096",
">=rsgytq,*241fattre25554:770wqu8yqqt93;%;90qq0312yiyy6<9w24yr43e",
"#o26e674%=<<1u80689750qt98wwq0rq<-4q,;>&,qqqe90qaffutr3<3 +>5222",
"<%>77>&;;,r4<3qapfw4wte845rq07157>>q2;79eitty968uipe98345X.=*q06",
"rwteu7,<9qti090pte716wt070re78569876t6yr0rw0w66wurwe82788&4iuge7",
"p86yw68udpsy359ty1:28ryq8w89<1pdrr7qq6908750q><wiq987<5tw76fggtq",
"y7qatq1<tuy95qwqy2*>,0087063;2futdpt044333:772,774215>151rrgiuqq",
"t0ty63,:ry00wt79u54828w389e4<qfutiu69q99rq,429q773551>>9<889ytet",
"2166:;29tyeetu0qt4405479erp74fguipr3601wsi5;,65745re045s80w3ue95",
"-60033erqt80y06e0337436rtua07020yr729e5ey96,553:7wiyr7ysqyi262,;",
"4dfarqwr77-24<3q4,50wegsayr98;%90;&20urdy6840d57rsaue0euqr8,-OO*",
"rsutq34w98=4859e>*ruttpeqw03><,7r,;1ttus7305qiyweat07rye8q85>+&8",
"gseeq549iq65t061=;erq8955992>3pifitt79qy2,370t086utr67wwqe82:%qg",
"tyte9149e3>0iq56490q9746641<20gaasu9qy97-%>89q930ttr2,4q8q4,75rd",
"798993290136ysptque5e85706,-:wdire5,wdy33<7966119r99,<e05726sdar",
"5624785we625rirrw807974509<344pw7t96w957iiau65-:9u9953e0656896,<",
"wqr0wuytw9590iq800w4:11559-0ditw2155e2<qryaw871*qq59q65274rp53q9",
"tpi95y888716wi960765&#25yi0dguiw<;;::;0yyyirqq2791><;>7053r535uw",
"etr8382;>*,,6q479q>-2,<6rt9ifuiw>=106>3q9eue8578&%>,>6aar92,>9rw",
"900738e5,*,960q9e94=3ey440euiqq71>2ap55wye581,3q1<32iggaue0rwywr",
"9701-29546rw77uiieq7ts3,95wetq06358r8erdswe317ry7edrssayw434>75w",
"096,->3098e60uiupyreps93539ree06,7fa0prdyqr4,2752159dyeew7,<-2we",
"33<>17qpr0u97airwq979r7y5;6w424:<0fywfreew6-36:0794wu09675,367i5",
">23170rp053-1awe9q84wy86:,qe814-3fpequqwpq1,52,gfa338673:*>6y8t<",
"00983qyiq87<1w55<195qe84$%85907>3gp2477wue57637p0t6;5ww4:=1srwu9",
"ftte6itrtw86e43>=10444;**;,4>-147gr0257eq0qeywdfy7210r4556wiq89r",
"t3311qrqt6<2760w0ed5151*&wrtty57ugw84>7turey73us8<23ad<39w84r0qt",
",=152prriw6ewptuggf6tu>80tqupgiw74><:-86ptuq,<qi5,9ifu89<*<7t0w5",
"=4sfpdrq739du<4qu52354;rfg2,96>ei4*#%3piy28q68ri64sspuwt>&4gdia,",
"<gis8q78<*406#,t4=,:#>tgiw4,3r9q75517iguy044>9y924pt0r01@$ggaur1",
"4frq7w41><06,>1t4-7y17ggaa9tusw43&&fgggtu2:518s9:0ye0yw1;6sdreq5",
"siw80wq:,1q4184,535twggir00ifp002;,gffutr,,<4p8,,548wyw29iiietsw",
"sipt969538writ4%7732:9rt0419r096-,5sdpuuw:<1:t08w>53964-,q7qyeiw",
"yqqt93;%;90qq0312yiyy6<9w24yr43e>=rsgytq,*241fattre25554:770wqu8",
"<-4q,;>&,qqqe90qaffutr3<3 +>5222#o26e674%=<<1u80689750qt98wwq0rq",
"7>>q2;79eitty968uipe98345X.=*q06<%>77>&;;,r4<3qapfw4wte845rq0715",
"9876t6yr0rw0w66wurwe82688&4iuge7rwteu7,<9qti090pte716wt070re7856",
"rr7qq6908750q><wiq987<5tw76fggtqp86yw68udpsy359ty1:28ryq8w89<1pd",
"tdpt044333:772,774215>151rrgiuqqy7qatq1<tuy95qwqy2*>,0087063;2fu",
"tiu69q99rq,429q773551>>9<889ytett0ty63,:ry00wt79u54828w389e4<qfu",
"ipr3601wsi5;,65745re045s80w3ue952166:;29tyeetu0qt4405479erp74fgu",
"yr729e5ey96,553:7wiyr7ysqyi262,;-60033erqt80y06e0337436rtua07020",
"0;&20urdy6840d57rsaue0euqr8,-OO*4dfarqwr77-24<3q4,50wegsayr98;%9",
"r,;1ttus7305qiyweat07rye8q85>+&8rsutq34w98=4859e>*ruttpeqw03><,7",
"fitt79qy2,370t086utr67wwqe82:%qggseeq549iq65t061=;erq8955992>3pi",
"asu9qy97-%>89q930ttr2,4q8q4,75rdtyte9149e3>0iq56490q9746641<20ga",
"re5,edy33<7966119r99,<e05726sdar798993290136ysptque5e85706,-:wdi",
"7t96w957iiau65-:9u9953e0656896,<5624785we625rirrw807974509<344pw",
"2155e2<qryaw871*qq59q65274rp53q9wqr0wuytw9590iq800w4:11559-0ditw",
"<;;::;0yyyirqq2791><;>7053r535uwtpi95y888716wi960765&#25yi0dguiw",
">=106>3q9eue8578&%>,>6aar92,>9rwetr8382;>*,,6q479q>-2,<6rt9ifuiw",
"1>2ap55wye581,3q1<32iggaue0rwywr900738e5,*,960q9e94=3ey440euiqq7",
"358r8erdswe317ry7edrssayw434>75w9701-29546rw77uiieq7ts3,95wetq06",
",7fa0prdyqr4,2752159dyeew7,<-2we096,->3098e60uiupyreps93539ree06",
"<0fywfreew6-36:0794wu09675,367i533<>17qpr0u97airwq979r7y5;6w424:",
"3fpequqwpq1,52,gfa338673:*>6y8t<>23170rp053-1awe9q84wy86:,qe814-",
"3gp2477wue57637p0t6;5ww4:=1srwu900983qyiq87<1w55<195qe84$%85907>",
"8gr0257eq0qeywdfy7210r4556wiq89rftte6itrtw86e43>=10444;**;,4>-14",
"igw84>7turey73us8<23ad<39w84r0qtt3311qrqt6<2760w0ed5151*&wrtty57",
"74><:=86ptuq,<qi5,9ifu89<*<7t0w5,=152prriw6ewptuggf6tu>80tqupgiw",
"i4*#%3piy28q68ri64sspuwt>&4gdpa,=4sfpdrq739du<4qu52354;rfg2,96>e"
};
