/* XPM */
static char *_c75395d0f2749f3a86b707aa174c57fw1QPdO0KJxl52L8k[] = {
/* columns rows colors chars-per-pixel */
"64 64 210 2 ",
"   c #0182FF",
".  c #0A86FF",
"X  c #048BFF",
"o  c #0A8CFF",
"O  c #138CFF",
"+  c #1A8FFF",
"@  c #0693FF",
"#  c #0C93FF",
"$  c #0B9AFF",
"%  c #1394FF",
"&  c #1B93FF",
"*  c #129BFF",
"=  c #1B9CFF",
"-  c #2294FF",
";  c #2995FF",
":  c #239CFF",
">  c #2C9CFF",
",  c #329CFF",
"<  c #0DA3FF",
"1  c #0EACFF",
"2  c #16A2FF",
"3  c #1AA5FF",
"4  c #13ACFF",
"5  c #1BABFF",
"6  c #15B1FF",
"7  c #1DB3FF",
"8  c #14BCFF",
"9  c #1CBDFF",
"0  c #24A4FF",
"q  c #2BA4FF",
"w  c #26A9FF",
"e  c #2AADFF",
"r  c #34A4FF",
"t  c #3BA5FF",
"y  c #35ACFF",
"u  c #3BABFF",
"i  c #22B5FF",
"p  c #2DB1FF",
"a  c #25BBFF",
"s  c #29BEFF",
"d  c #33B4FF",
"f  c #3CB3FF",
"g  c #34BAFF",
"h  c #3ABDFF",
"j  c #43A4FF",
"k  c #4AA7FF",
"l  c #44AAFF",
"z  c #4CACFF",
"x  c #52ADFF",
"c  c #42B5FF",
"v  c #4DB4FF",
"b  c #45BBFF",
"n  c #4ABEFF",
"m  c #51B3FF",
"M  c #5CB5FF",
"N  c #51B9FF",
"B  c #5BBDFF",
"V  c #66B6FF",
"C  c #64BBFF",
"Z  c #6CBCFF",
"A  c #79BFFF",
"S  c #1EC4FF",
"D  c #16C8FF",
"F  c #1BD2FF",
"G  c #1DDEFF",
"H  c #21C4FF",
"J  c #2BC5FF",
"K  c #25CBFF",
"L  c #2CCBFF",
"P  c #32C5FF",
"I  c #3DC2FF",
"U  c #31CCFF",
"Y  c #3ACDFF",
"T  c #2AD3FF",
"R  c #35D3FF",
"E  c #3BD4FF",
"W  c #36D9FF",
"Q  c #3BDBFF",
"!  c #1EE1FF",
"~  c #21EBFF",
"^  c #35E1FF",
"/  c #3EE3FF",
"(  c #3EECFF",
")  c #24F4FF",
"_  c #28FFFF",
"`  c #43C6FF",
"'  c #4DC1FF",
"]  c #44CAFF",
"[  c #4ACDFF",
"{  c #54C5FF",
"}  c #5DC1FF",
"|  c #55CAFF",
" . c #5BCCFF",
".. c #42D5FF",
"X. c #4CD2FF",
"o. c #4BDDFF",
"O. c #52D4FF",
"+. c #5ED0FF",
"@. c #54DBFF",
"#. c #5CDDFF",
"$. c #63C5FF",
"%. c #6CC2FF",
"&. c #66CBFF",
"*. c #6BCBFF",
"=. c #73C5FF",
"-. c #7CC3FF",
";. c #73CFFF",
":. c #7ACAFF",
">. c #62D2FF",
",. c #6BD3FF",
"<. c #63DCFF",
"1. c #6CDBFF",
"2. c #74D1FF",
"3. c #7CD3FF",
"4. c #72DEFF",
"5. c #7ED8FF",
"6. c #44E4FF",
"7. c #4BE5FF",
"8. c #44EAFF",
"9. c #4CEBFF",
"0. c #56E2FF",
"q. c #5CE3FF",
"w. c #51EDFF",
"e. c #5EEAFF",
"r. c #46F3FF",
"t. c #4AF6FF",
"y. c #4EFDFF",
"u. c #53F2FF",
"i. c #5BF4FF",
"p. c #55F9FF",
"a. c #5CF9FF",
"s. c #61E3FF",
"d. c #69E6FF",
"f. c #64ECFF",
"g. c #6BECFF",
"h. c #73E1FF",
"j. c #7BE5FF",
"k. c #72EDFF",
"l. c #7CEAFF",
"z. c #64F3FF",
"x. c #6BF4FF",
"c. c #63FCFF",
"v. c #6DFCFF",
"b. c #73F5FF",
"n. c #74FCFF",
"m. c #7BFDFF",
"M. c #8AC5FF",
"N. c #84CBFF",
"B. c #8CCDFF",
"V. c #94CBFF",
"C. c #99CFFF",
"Z. c #84D1FF",
"A. c #8DD6FF",
"S. c #83DBFF",
"D. c #8BDCFF",
"F. c #91D2FF",
"G. c #9BD2FF",
"H. c #95DBFF",
"J. c #9BDDFF",
"K. c #A5D8FF",
"L. c #ABDAFF",
"P. c #B5DEFF",
"I. c #84E7FF",
"U. c #8CE3FF",
"Y. c #82EDFF",
"T. c #92E5FF",
"R. c #9EE1FF",
"E. c #95EAFF",
"W. c #9BECFF",
"Q. c #86F2FF",
"!. c #8BF5FF",
"~. c #83FCFF",
"^. c #8DFCFF",
"/. c #93F5FF",
"(. c #9BF4FF",
"). c #94FCFF",
"_. c #9BFDFF",
"`. c #A5E3FF",
"'. c #A8E7FF",
"]. c #A3ECFF",
"[. c #ACEAFF",
"{. c #B4E4FF",
"}. c #BAE6FF",
"|. c #B3ECFF",
" X c #BEEAFF",
".X c #A3F3FF",
"XX c #A9F6FF",
"oX c #A3FDFF",
"OX c #ADFAFF",
"+X c #B6F2FF",
"@X c #BCF3FF",
"#X c #B3FDFF",
"$X c #BBFEFF",
"%X c #C7E8FF",
"&X c #C3EDFF",
"*X c #D5EDFF",
"=X c #D9EDFF",
"-X c #C1F5FF",
";X c #CCF2FF",
":X c #C5FAFF",
">X c #CCFDFF",
",X c #D3F5FF",
"<X c #DCF3FF",
"1X c #D1FDFF",
"2X c #DBFAFF",
"3X c #E5F3FF",
"4X c #E3FDFF",
"5X c #EDFCFF",
"6X c #F2FCFF",
"7X c #FBFEFF",
/* pixels */
"i.J i p { 5..X)./.b.o.4         X * @.).OX*.y e e *     X i @./.#X@XL.R.W.Y.0.7     < 9.m.^.v.y.~ Q X.1..X:X:X#X/.X.5 e  .U._.~.",
"K     * g b n #.z.n.v.R X # 2 6 R f./.#X.Xy = # #       # ] Y._.#XJ.z V J.E. .%     $ f.oXm.w.K X   o - c :.&X>X#XQ.0.4.XXoX~.c.",
"U < 5 I n b w # i 7.m.b.8.f.q.w.b.).OX#X).`   @       # ] Y./.^.!.5.t O B.[.3.&   5 [ Q.m.u.S     X 2 p q u %.&X>X#X).OX>X$X).g.",
"X.P I | ' h 5 X   < 8.m.n.).m.a.8.] +.XX#X1.w 3   X p @./._.k.q.d.4.B ; =.}.`.$.b @.Y.XX/.f.5   X * e c : % > A.,X>X#X>X2X-XT.1.",
"{ d q r y d i @     J b.).n.8.a X   o  .OXOXQ.f.Q 0.Q.)._.k.E 3 s s.j.;.3.`.}.`.U.Y.XXOXQ.g # X @ 2 p e % X o } [.,X>X2X%XG.N.*.",
"} f & & > q p *     4 u.m.p.8     X   % h.#X#X).n.).#X_.~...$   6 w.m._.(.].{.&X+X.X:X#XQ.= o @ @ 2 e =       ' E.+X2X<X*XP.F.%.",
"C B z z l r c 3 X   i x.n.r.$   @ $ X w l.OXOX#X).OX@X#XoXk.g H w.m._.).~.(.].{.;X:X>X#X!.h X X @ * 2 X     3 X.h.W.>X2X5X3XC.Z ",
", > j M M z v y % o h !.).q.#   X     L v.).)./.Q.1.N :.#X_.~.a.m.!.f.f.u.k.I.3.R.[.W.Y.f.R X     2 <     5 @.j.5.H.2X6X7X6XV.j ",
"O   O j k j r & % w >.XX).Q.w       < 8.m.n.x.0.I = & B :X#X).f.>.I i 7 9 ..#.,.S.H.$.| s.w.4     @ #   # ] j.U.Z.J.2X6X7X6X}.V ",
"z . O ; - ; ; & N Y.#X#X)./.1.g a K 9.m.n.t.7 # X X e 1..X@XB q 0 5 $     6 ..d.j.2.; O { k.w.T D 7 e J X.j.U.A.F.}.4X4X<X<X2X`.",
"S.-     O O + B _.).).).n.m._.).n.c.m.n.y.8   X   $ Q x.h.u r & = 5 @     # ] Y.U.m & . y k.v.y.) t.x.f.l.S.M z -.,X>X>X;X2X:X#X",
"Q.Y.2.$.Z.F.S.Y.n.f.0.@.Q 6.b._.).^.).f.I X       S i.f.' . ; : q w $     X p 4.;.t & . q <.v.y._ r.f.Y.E.=.j =.R.:X#X#X@X|.].!.",
"q.n.).).#X#X_.n.8.2 o     @ / m._._.x.g X       X R x.X.%   - : : = #       * ] c .     : | c.y.) Q X.h.S.=.B.|.OXOX^.Q.2.t & e ",
"5 Q f.x._._.m.t.8           K c.^.n.R X       @ L q.R #   % & - & % % o   X 3 1.*.-   & c #.7.K < J h y u Z.@XOX/.j.] g o       ",
"  X * J b._.m.8.@   # @ @   6 a.m.t.<     X 4 Q b.t.1   X # % = % & 3 $     % Y..XC O & f I i     ^ 7.h { +X#X!.f.p X X   X #   ",
"X X   X 6.n.v.T     X # $ X i n.n.W       9 u.m.n.8.    @   % & % % * X     J n.).(.5.,.O.Y K     y.n.^..X#X).0.a     $ o   % 2 ",
"        T c.n.Q             ^ v.b.g X $ $ 6.m.~.a.S   X #   % % o X X   @ J v.).#X>X>X:XOX^.n.p._ Q v.)..X!.b.U <     X # o # = ",
"% * @   U n.).q.o     X   4 p.m.!.>.[ 8.8.m._._.x.5 @ 2 X o # #       X L x.).#X@X;X:X$X(.~.v.p.) 2 ] Q.E.j.x.i             o = ",
"% # # X e !.#XY.=   o % s 9.m.oX#X#X).m.m.m.~._.n.s   $     X X X   @ Q b.!.U.Z.N.z M T.I.<.w.y.) 3 * [ 1.b.9.4     X X       # ",
"% X o o q W.>X.Xy o > +.x.m._.#X#X_.m.n.p.9.u.m.v.W             X 6 8.n.!.5.& ; x - O $.j.[ o.y.~ * X 5 ` g.7.<   X   X @ X # % ",
"O   o & } :X4X>XW.E.W.#X).oX$XOX).m.p.L 4 $ 4 8.m.a.K 7 = o $ H Q u.n.!.*., . k N.k   m ,.d ..y.D     X 3 O.0.5       X # X o O ",
"& O & - =.4X4X>X#X_.).).#X$X#X_.n.p.F         $ 9.m.c.x.j.0.8.a.b.m./.5..   ; A G.Z - v $.d 0.y.D       o b s.P <     X # o o o ",
". & ; - Z 2X1X$X#Xx.e.O.1.XX#X_.b.Q $   X   X X X.).~.).#X).n.~.!.!.XXZ.+ x M.V.V.B.=.:.S.h.v.y.G o   X   f 4.#.E 4   X o X X   ",
"o q r & N.>X#X/.1.a 2 X % 1.OXW.n = o   X X o o  .#XoX#X^.h.j.Y.XXXX|.Z j K.L.Z x `.#X#XoX^.n.y.~ $   X X p 1.h.q.J             ",
"0 v l , J.#X_.s.0     < P g.Q.v . = 2 X       o ,.#X#X).0.e e { .X:X;XB.A L.L.Z :.#X#X_._.m.v.y.) R @     5 X.1.q.R $       # = ",
"v B x M W./.q.i # X X J f./.5.- & 0 % * X   o : D.#XQ.X.5 o * p Q.#X>X2X<X<X,X@X#X_.).b.Q.f.u.y._ y.K     7 [ >.1.#.Y 4 o # = y ",
"C Z :..XY.] *     X s f.).#X%.. - = % *   X % 4.#X^.I $       # q._.#X>X2X,X1X#X_.b.@.E ] w s K ) y.c.K 5 h { *.5.4.#.Q ] h c r ",
" X*X;X@X*.O X 5 K / x.).#X:XB O & % X     6 9.m.).h.o     X # % h.#X>X2X}.|.#X).f.s # @ # # X $ < U z.c.x.j.*.v z D./.m./.!.E.H.",
"6X6X<XK.t & = O.a.n.).#X>X'.;   % o     X Q n.)./.[   o o X X X S.:X>X&XA.W._.n.Q @       #       X 6.n.).OXJ.F.H.:X#X_.#X#X1X4X",
"6X6X*XC.Z J.T./.m.m._.#X>X;Xj X   o 3 S Q b.).).b.i   * o     O ].#XOX[.{.|.OX^.@.#   @ X % o @   X g Q.#X:X2X:X-XOX!.Y.Q.XX:X4X",
"4X3X=X%X}.@XXX!.z.f.b._.$X1XT.2.>.h.b.c.n.).j.m.u.<   X   X o v (.).Q.E.[.&X:X#XQ.p # % * = # X X X = h.OX:X:XXXU.1.[ ] ` >.T.:X",
">X,X%X&X|..XQ.O.a i E n._.$XoX).n.).).m._.#XW.).x.5   X o q *./.~.f.0.h.E.@X>X#X_.h.e # o # #       g ^.#X@XS. .b g 5 2 2 d h.OX",
"#X@XL.R.W.Y.0.7     < 9.m._.m.n.8.@.>.4..X:X:X#X/.X.5 e  .U._.~.w.J i p { 5..X)./.b.o.4         X * @.).OX*.y e e *     X i @./.",
"#XJ.z V J.E. .%     $ f.).m.9.L X   o - c :.&X>X#XQ.0.4.XXoX~.c.K     * g n n #.z.n.b.R X # 2 6 F 8.v.).W.y = # #       # ] Y._.",
"!.5.t O B.[.3.&   5 [ Q.m.u.S     X 2 p q u %.&X>X#X).OX>X$X).g.U < 5 I n b w # i 8.m.b.8.l.0.8.) y.v.)./.`   @       # ] Y././.",
"d.4.} ; =.}.`.$.b @.Y.XX/.f.5   X * e c : % > A.,X>X#X>X2X-XT.1.X.P I | ' h 5 X   < 8.m.n.^.v.t.~ L X.!.#X1.w 3   X p @./._.k.q.",
"s s.j.;.3.`.}.`.U.Y.XX:X(.b % X # 3 f y % X o } [.,X>X2X%XG.N.*.{ d q r y d i @     J b.oX~.7.9 X   o  .OXOXQ.f.Q 0.Q.)._.k...3 ",
"6 w.m._.(.].{.&X+X.X:X>X.X: o # % q e =       ' E.+X2X<X*XP.F.%.} f & & > q p *     4 u.m.p.8     X   % h.#X#X).n.).#X_.~...$   ",
"w.m._.).~.(.].{.;X:X>X#X/.h X X # = 2 X     2 X.h.W.>X2X5X3XC.Z C B z z l r f 3 X   i x.m.r.$   @ $ X w l.#XOX#X).OX@X#XoXk.g H ",
"m.!.f.f.u.k.I.3.R.[.W.Y.g.E X     2 <     5 @.j.5.H.2X6X7X6XV.j , > j V M z v y % o h !.).q.#   X     L v.).)./.Q.1.N :.#X_.~.a.",
">.I i 7 9 ..#.,.S.H.$.| s.w.4     @ #   # ] j.U.Z.J.2X6X5X5X}.V O   O j k j r & % w >.OX).x.5       < 8.m.n.x.q.I = & B :X#X).f.",
"0 5 $     6 ..d.j.2.> O { g.9.T K i e J X.j.U.A.G.}.1X4X,X;X2XR.z . O ; - ; ; & N Y.#X).^.m.o.9 8 K 9.m.n.t.7 # X X e 1..X@XB q ",
"= 5 @     # ] Y.U.m & O l I.m.c.a.b.Q.f.Y.5.V z =.:X#X>X@X:X:XOXS.-     O . + B _.).).).n.m.n.y._ y.n.n.y.8   X   $ Q x.h.u r & ",
"q w $     X p 1.;.r & . r D._.^.m.!.].Y.].=.t %.T.OX).#X.XW.W.Q.Q.l.2.$.3.A.S.Y.n.f.0.@.Q 6.c.y._ y.n.f.I X       S i.f.' . : : ",
": = #       * ] f .     - &.^.n.z.<.,.j.4.$.*.E.(./.b.Q.+.q & e q.n.).).OXOX_.m.8.2 o     @ 7.y._ y.x.g X       X R x.X.%   & - ",
"% % % o   X 0 @.[ %   # d #.q.U 3 P b w w +.!.~.m.e.U g o       5 Q f.x.^.).~.t.8           K y._ y.R X       @ J s.R #   % % = ",
"# # 2 $     % e.u.a o # i P i     ^ 7.s P x.v.c.9.7 X X   X # X   X * J c.n.v.8.@   # @ @   6 t._ p.<     X 4 o.v.u.1   X # # * ",
"@ @ $ X     H y.y.r.T T T K K     y.y.y.t.y.y.^ 9     $ X   @ < X X   X ^ y.y.T     X @ $ X 6 y.y.T       9 r.y.y.(     @   @ @ ",
"X X X   @ D ) _ _ _ _ _ _ _ _ _ _ G _ _ ) ) ) D <     X @ X @ $         F _ _ G             ! y.) 8 X $ $ ! _ _ _ D   X @   @ @ ",
"      X L t.y.y.t.r.y.y.t.t.y.y.t.2 L r./ / r.i             o * # * @   U y.y./ o     X   4 v.y.) R U / / y.y.y.t.5 @ 2 X X # # ",
"X   @ Q v.x.0.X.] w d 0.f.@.f.n.x.w * [ @.x.9.4     X X       # % # # X e x.n.f.=   o % s 9.n.y._ y.n.n.n.n.n.n.n.s   $     X X ",
"X 6 8.n.!.1.% = y % . { h. .1.).e.* X 5 ] g.7.<   X   X @   # % % X o o q Y.).Q.y o : +.x.).v.t._ y.n.n.p.9.u.m.v.W             ",
"/ u.n.!.&.> . r } t   v 2.v ,.n.L     X 3 O.q.5       X # X o O O   o & } OX#X#XW.E.I.#X_.).n.t._ y.p.L 4 $ 4 8.m.a.K 7 = o $ H ",
"b.m.^.5..   - C Z.C & m =.v U.).I       o b s.P <     X # o o o & O & - =.>X>X>X#X_.).)._.^.n.y._ y.F         $ 9.m.c.x.j.0.8.a.",
"!.!.XXZ.+ k -.N.N.B.=.Z.L.{.:X#X1.o   X   f 4.#.E 4   X o X X   . & ; - Z 2X>X$X#Xx.f.X.4.~.n.y.) W $   X   X X X.).~.).#X).n.~.",
"XXXX|.Z j G.K.V x `.:X#X:X2X>X#XY.=   X X p 1.h.q.J             o q r & N.>X#X/.1.a 2 X % <.v.( 8 * o   X X o o  .#XoX#X^.h.j.Y.",
".X:X;XB.A L.L.Z :.#X#X_.#X:X#X_.m...@     5 X.1.q.R $       # = 0 v l , J.#X_.s.0     < P k.u.6 X $ 2 X       o ,.#X#X).q.e e { ",
"Q.#X>X2X<X<X,X@X#X_.).b.Q.W..X).m.c.K     7 [ >.1.#.Y 4 o # = y v B x M W./.q.i # X X J f.n.Q @ @ 2 % * X   o : D.#XQ.X.5 o * p ",
"s.).#X>X2X,X1X#X_.b.@.R ] q n [ f.n.c.K 5 h { *.3.4.#.Q ] h c r C Z :..XY.] *     X s f.).n.J   @ * # *   X # 4.#X^.I $       # ",
"h.#X>X2X}.|.#X).f.s # @ # # o * 3 U x.c.x.j.*.m z D./.m./.!.E.H. X*X;X@X*.O X 5 K / g.).).b.a X @ # X     6 9.m.).h.o     X # % ",
"S.:X>X&XA.W._.n.Q @       #       X 6.n.).OXJ.F.H.:X#XoX#X#X>X4X6X6X<XK.t & = O.a.b.).#X).q.*   @ o     X Q n.)./.[   # o X X   ",
"].#XOX[.{.|.OX/.@.#   @ X % o #   X g Q.#X:X2X:X-XOX!.Y.Q.XX:X4X6X6X*XC.Z J.T./.m.m._.#X).x.3     X 3 H Q b.).).b.i   * o     O ",
"(.).Q.E.[.&X:X#XQ.p # * * = % o X o : U.:X2X>XXXU.1.[ ] ` >.T.:X4X3X=X%X}.@XXX!.f.f.b._.oX^.0.T F / x.c.n.).j.m.u.<   X   X o v ",
"~.f.0.h.E.@X>X#X).h.e # o # #     X c OX>X@XS. .b g 5 2 2 p 4.XX>X,X%X&X|..XQ.@.a i E n.#X).n.y._ y.n.m._.#XW.).x.5   X o q *./."
};
