/* XPM */
static char *result[] = {
/* columns rows colors chars-per-pixel */
"64 64 109 2 ",
"   c #3D2E1B",
".  c #3E311D",
"X  c #412F1C",
"o  c #492F1D",
"O  c #45321E",
"+  c #4C321E",
"@  c #52331F",
"#  c #5C351F",
"$  c #463220",
"%  c #4C3520",
"&  c #543521",
"*  c #5A3621",
"=  c #553922",
"-  c #5C3923",
";  c #623722",
":  c #633A24",
">  c #6B3C25",
",  c #723D26",
"<  c #733F28",
"1  c #644327",
"2  c #644B2C",
"3  c #6C4E2E",
"4  c #7D4429",
"5  c #704F2F",
"6  c #784C2A",
"7  c #71522E",
"8  c #6B4F31",
"9  c #6E5131",
"0  c #6F5834",
"q  c #725433",
"w  c #7B5734",
"e  c #765834",
"r  c #7C5A36",
"t  c #775939",
"y  c #7D5C39",
"u  c #7C6036",
"i  c #7E613A",
"p  c #815D37",
"a  c #825D3A",
"s  c #8A5E3C",
"d  c #84623C",
"f  c #8A643D",
"g  c #87683E",
"h  c #8A693F",
"j  c #92653E",
"k  c #916B3F",
"l  c #876541",
"z  c #8A6540",
"x  c #856A41",
"c  c #8C6A42",
"v  c #936C43",
"b  c #996E46",
"n  c #8D7247",
"m  c #957245",
"M  c #9A7345",
"N  c #9C7947",
"B  c #947549",
"V  c #9A7549",
"C  c #96794B",
"Z  c #9D7A4B",
"A  c #9E7D51",
"S  c #A1764A",
"D  c #A27C4D",
"F  c #A37D51",
"G  c #A87E50",
"H  c #9B804E",
"J  c #9F8051",
"K  c #A2814E",
"L  c #AC824C",
"P  c #B3864F",
"I  c #BB874F",
"U  c #B7884C",
"Y  c #B88A4F",
"T  c #A58352",
"R  c #A98655",
"E  c #A58955",
"W  c #A68458",
"Q  c #A98559",
"!  c #A78A58",
"~  c #AA8B5A",
"^  c #B48A52",
"/  c #BC8D54",
"(  c #BE8F58",
")  c #AD915B",
"_  c #BE9254",
"`  c #BF925A",
"'  c #BF985A",
"]  c #C08E54",
"[  c #C19256",
"{  c #C1955B",
"}  c #C39A5D",
"|  c #C5A15F",
" . c #C39661",
".. c #C59D62",
"X. c #C89E66",
"o. c #C6A264",
"O. c #C8A465",
"+. c #C7A865",
"@. c #C9A967",
"#. c #C7A569",
"$. c #C9A46A",
"%. c #C7A96A",
"&. c #CAAB6B",
"*. c #CBB26E",
"=. c #CBAD70",
"-. c #CCB472",
";. c #CEBA75",
":. c #CFBE79",
">. c #D0BD78",
/* pixels */
"%       % + . . : 1 = % = 1 6 6 : %   . - : - % .       $ - - - $ $ & : > > : : & * - ; : : > > # # # # @ + o X   O + & * * - - ",
"c g y d x d i x x d g i x B B c l t t q t t y d d i e t a l l c d y r w w g z v b m M j k k g d w e 7 5 w w w p d g v M v x x c ",
"T K Z Z T N N K A J K Z H Z Z Z V B B N J A A A Z S S F F A V V A V v g h v B V m v m v N K D D F V b v v v k v C D K K N m V D ",
"&.o.} ..o.{ Y / } +.+.o.} ' ' ` ^ ^ ` o.%.%... .` ' } +.$...} ..} } } ....#.......o.@.#.&.-.-.*.=.-.-.@.{ ( _ [ } | o.} ' } +.*.",
"-.*.o.X.#.{ U U _ +.-.-.*.-.*.+. .` ..#.&.=.%.o.....o.#.@.&.&.&.X. .[ { } o.o.} ( { X...{ ( / ( O.&.@.o.{ ^ ( _ ..} | ' ' } +.*.",
"D K N v h f d j j B V Z N Z D Z m c c v A Q T D N N S S V V M S V S S S K T S S v m V B h v m A D V m h m M M C C N N Z C M B m ",
"z v s w p y a s d d p r w s f f i y e t z b b z h h j f a p w p v z s p a a s p s d s w q t y x g t e e g b m c g g h c c h d p ",
"@ + X X @ * & & & @ @ o % * * * & - - * & & * & & ; * @ + @ # ; > ; ; @ @ @ & & * ; * @ & # * - * * = = * - * % + O + # - - & + ",
"  . . $ & & - : & & + + O + # @ O + @ & & + $ % + + @ o X o @ @ o o @ @ X   X + # # +     o & * % $ $ $ $ $ X     O = = = $ . . ",
"g x c c c x x l i i i d i i d g y g g g d d d p r y p f f j s s p s s s p f d f d a r y r t q r a d d a y y t a d g g i i i x i ",
"E ! ) ) ! Z C m h h k v b B B m C H E T D Z N M n v M M S R G S b M M D G G D D v v v V Z m v V Z F F Z m v V F E H B c h n H H ",
":.;.;.-.*.&.&.&.@.+.o.o.#.&.@.@.+.*.;.;.*.@.O.X.+.@.@.o...} ..} [ ..O.@.*.&.+.O.} } } o.&.&.#.@.-.=.$.$.$.=.=.&.#.&.&.@.@.;.:.;.",
"@.-.;.:.>.;.&.@.&.@.#.o.#.o.&.=.&.@.&.&.#.o.o.+.&.*.-.*.=.#.O.} } } } } } } | @.&.&.#.$.&.&.#.X.....' { {  .} } } #.-.&.@.*.&.@.",
"N Z T T T T V m m V Z N m b V Z Z C C A Z Z V T ) ) ~ E F Z b v k M M b M b M S V S V B V b V S S Z V V V V M b m S T D H Z Z N ",
"g d y w w y d d d d f g d d d g c c c v b c c b N C n m m m b b k k b b k f s p l l s y w q w l z w 9 w d z a 8 q w p y p f c x ",
"+ + @ * ; - * * @ O   O @ * * & - , > : : : : > - : : : > > , 1 < , > > , ; ; ; ; > ; * % o & : : * & & @ & @ + + @ & % % & * @ ",
"* * : : - # * - ; @ @ @ @ # # # & * - * & & % % * * & % O O + * - = * * @ o o o + @ ; ; # # : ; * # : 1 : > : - # # # # # @ # : ",
"g c j d e e i h k h d p p p s f d d d i i y y a t a a a p y d d g d d p a a a s d g f d d d f d r i d g v N m d d g k k h d d h ",
"T D S N k m M M M k k j j j v M B m v h g p i d v v z l h h k m N H F G S S S b M S D S k M M k m C Z Z C M m v N N D N k k N K ",
"&.&.+.O.O.| [ [ [ } ..X.$.X...{ { } ........' ` ] ] {  .} { U L _ ' X.=.$.X.{ [ { } } | | } ] [ } %.&.@.#.#.+.#.| | } ] P U ] | ",
"[ } O.O.O.} } } { } O.O.$.$.X.} ` ' ....#.&.+...X. ./  .#.$.$.%.} { } O.$.X.o.O.$. ./ I I / ] { { .. . . .` ..#.&.O.o...} [ } } ",
"k k N S K K L K M S G S b v b N D A V m V A A m z l z S F F F C v v B N Z b M M V v a a l v b V Z A Z B v l l m D D V N N N M M ",
"k M b v v v h f f f f d w e q e i y 9 9 q a l y t 8 t t l t y y 9 8 q a a w q q y t q t l c v m v z l d y y y s h c h h f d g h ",
"; , < , ; * * ; # @ + + @ # * * & * & O $ & & O & $ $ * = & % % o   X * - * * : % X   X % - * - - : ; * % X $ & & * * ; # @ + @ ",
", ; # @ @ @ # & & + X   O % * > : - * & $ . $ $ * & & - = = = - - & * > 1 = & : = = % . $ = # + $ % - : @ + O O % = + @ # ; > , ",
"w e r p a d d p d w q 3 8 q a v z y q 2 2 2 9 0 d d x n B B C n d q 0 d h d d g x n n c d g g f d x c v g i e e t i d f g d j z ",
"M M M N V V N A S V m v x v N W F v d y g v V A m M B B J E E H B n B K Z Z V N Z N N m m v v v N T T D m h d f h m m M M v f f ",
"@.O...o.O.#.&.=.=.=.@.$... ...=.-.#.' } ..X.#.$.+.+.O.| &.:.;.} / { | } / P ` ' o.{ ( [ } { [ / { ..X.} { ] ] I _ ' } +.&.=.&.#.",
"@.} } ..O.O.#.$.%.X...#.$.%.$.=.%.o.#.$.=.$.%.$.O.%.@.+.&.>.&.{ { ..O.} / ( } @.$...{ [ ....} } [ ] [ } o.#.o.} '  .o.&.*.-.@.o.",
"D G V V S V b v x d d v V A A V V B V A W W Q Q ~ Q F Z D T F S N Z K F F F D N b V F D N M B B v m Z D Z T T T B m m C Z C B n ",
"p d f v M V v l s r t y l l s l l l l d l l x v c c d t e w p w 5 9 w s a w e 7 a v v x d i x x i i g z d d i g d i d l i i e 5 ",
"+ @ ; , 4 < : %       . % * ; : : - * - * * - : - - : : ; @ o                 @ , 1 - = % = 1 1 = .   . = 1 % .   . . O O + + o ",
"O O = ; : > : : # # ; ; ; 1 > > # # * # @ + O O . . + & * * * - @       % %   . : : = % = 1 6 6 : % . . = : - &         $ - - - ",
"d d r w y d c v m m m k k j f d w w 5 q w y w w d g v M v x c h c d y d h i i x l d g i x B B c d t e e t r y l d y e t i l l c ",
"N M v f h b V M m k m m M K D D S N b v v v k v B K T K Z B M Z T T Z Z T N N T H E T Z C Z J Z B B B N A A Z A Z Z D S A A V V ",
"} } } ..o.o.......+.#.&.&.-.-.*.=.-.-.@.{ ] _ [ } | | } ' } +.*.@.O.} ..+.} ^ ^ ' o.+.o.} ' ' ' / ^ ' ..%.%... .` ' ..O.$.......",
"..{ [ { } X.O...{ ' ..} { [ ^ ` #.&.&.o.{ ^ ( _ } } o.' ' } +.*.-.&...X.O.} U U _ +.*.;.-.*.&.#.` ` X.%.=.=.#.O.} ..o.O.%.$.=.=.",
"Z S S F F F S V v b V m h v V S D N v c v m M B M N Z C N C B m D K V v h d s j j m V Z D D D V m c z m A T W F N D Z S V V V N ",
"v z s a p a a a a s s t q q y l d r e e z m m c h h h h h h i i v v s p s r r h g d y w e d f f d y t t l m b z f j j g p w w p ",
"> ; * * & @ @ & * ; - & & * * : * * = = - - = = + O + * - - # + @ o     @ * @ & @ @ @ + @ # * ; & * * & & * & & * * * @ @ @ # > ",
"o o @ + X X   + & * %     o & & % % $ $ $ $ . .   . = = = $ .         O = * : : & & + O O + # & O % % * & % % % + + + + X o @ @ ",
"p s f f d p d f d p p a y e q y d d d y y w r y l g i i i i g g g x x c x g x g y i d d i i g d i d g z a p a p y r p f z j s p ",
"b M S S D D S D v v v V V m v V Z F F S m c V W T H B n n B C H T ~ ) ) ! Z C m h h c m b B m B B K T T F Z N M m n m N G G G S ",
"[  .O.&.*.*.@.| ..} ....&.&.#.&.-.=.%.$.%.=.=.@.@.&.@.&.*.-.:.;.:.>.;.-.*.&.&.&.@.+...o.#.&.&.@.+.*.;.;.-.&.+.o.o.+.@.| .... .} ",
"} [ } } } } O.&.&.=.&.X.=.$.#.....} { { {  .{  .{ +.-.&.@.*.&.&.@.-.;.>.>.-.&.&.+.@.#.o.o.#.&.=.&.@.&.@.@.#.o.O.&.-.-.*.&.&.X.} ",
"k M S S b k M D V V V V V m V S S V V M V V V b M Z T S Z Z Z N V Z T Q T F V m m V A N m b M D Z C Z H S Z Z F ) ) ! ! T V M k ",
"k k k k j f s p l s s a e 9 w l x y q e s z y 9 q w y y d d h h g p y w r i p d d d g g d d d g g c c b v c c b C C B v b b b b ",
"4 < ; , > > ; > ; : ; * % o * : : * & @ & & & + + & @ @ + @ # @ + % & * ; - - * & O   . @ * # @ : 1 > : ; : : : : : : : > > < 1 ",
"; # # @ @ o o o o @ ; : # ; ; ; # - - : 1 : ; # * # # # # @ ; ; * ; ; 1 - # * ; - # @ + # # # # & * - - & + % % & * & & O O + # ",
"f d g i p p s s s s d d d d g d r i d g m N m g d f h m f d d h h h h h e e p h k h d p p p d f d a d d i y p i y p d p p y d d ",
"N N H K G G S b b V Z S N k k k v C A A N C m k k S D N v k N K T K S k k m N M b k v j j j v b M m c x d d i y v v c z h h k m ",
"_ } O.&.&.X.{ [  . ...o.| [ [ [ ..#.%.$.#.o.+.O.| | } _ U L ] | *.@.O.+.O.} { [ [ } ....O.#...{ { ..........} ( ` / _ ' } ' P L ",
"' { ..$.$.X.| O.X. ./ I ] ] ] [  . ... .` { ..o.*.+.o...} { { } [ } | +.O.} } } } ..X.O.O.X.X.} { { ..o.%.&.o... . ./  .o.$.$.$.",
"m v m V S M m M V v a a h k M V A F A b v z x b L D N V N M N M k k S D F K T D M S S D M m b V K Z V v B F A V v s z A Q F F V ",
"q 8 q a p w q e y t q t l c v b v l l i i y p s h c h h f f g h k v k b v v j d d d j f r e q w i y q 8 q d z y t 9 t t a y y y ",
"o   X * - * # ; $ . X   % * * * - : : * % X O % @ * - : * + + @ : > 4 , : # # ; ; @ + o + # - - = * & X $ & & X & % $ = * & $ $ ",
"- + * > > = = : = = % . $ & * % O % = : = % O O + + + @ * ; > , , ; - & @ @ @ * & o X X X & - > : - - & $ X $ $ & & & - - = = - ",
"i e 0 d g d d g c B n z d g g g d z c c g i e e u d g f d s j z w w w p a d d p a w q 8 8 q a x g y 9 2 2 2 8 0 d s x v C C C n ",
"B k B H K Z M C C C Z B M v v v S L Q S B h d p g m B M b c g h M M M N V Z N D A V m v v c V W F b d y g v V A B B B B J J J H ",
"_ } o.../ P ` { $. ./ ( } { ] ] } } ....{ ] ] I / ' ..+.&.&.&.+.@.o.} O.O.O.&.=.=.=.&.$...{ ..=.-.#.} { ..#.#.$.X.%.o...*.:.;.+.",
"' o.O.} I ( } @.#.} { } ....} { [ ] [ } o.O.X.} ' } o.&.-.-.@.o.&.} } X.O.O.&.&.$.X.X.$.$.#.=.=.@.o.o.%.=.%.$.$.+.%.&.@.*.;.&.' ",
"M N D F F G D N V V F Z V M V N n m N K D D T E B m m C Z C B v D S V V V V b v l d d c V A V V V B V A W F Q ~ ! ! D V Z T F V ",
"5 5 w d a w 9 q p v B l i i x x i i g x g d x x d i d d d i e 3 s f s z b b c l d t t y l l s l l l i l l l l v n z p r e w a w ",
"      O     X + > , : % % = 1 1 * .   . - - $       . O O + + o o @ ; , p < : % X     X % * : : : : * - - - - : * : : : ; @ o X "
};
