/* XPM */
static char *_e06bbb7f83346c087064f395994eda7DIVDXMZj1fI6KTAs[] = {
/* columns rows colors chars-per-pixel */
"64 64 74 1 ",
"  c #CCAE76",
". c #C7AE7B",
"X c #CCB37D",
"o c #D4B57C",
"O c #D8B77D",
"+ c #D6B87F",
"@ c #DCBB7F",
"# c #E1BD7E",
"$ c #CEB880",
"% c #D2B780",
"& c #D5BC83",
"* c #DCBD82",
"= c #D7BF88",
"- c #E1BE82",
"; c #DDC185",
": c #D4C48A",
"> c #DDC48A",
", c #DEC98E",
"< c #DACB90",
"1 c #E3C385",
"2 c #E9C686",
"3 c #EBC887",
"4 c #E4C689",
"5 c #E9C788",
"6 c #E6C98C",
"7 c #EBCC8C",
"8 c #F1C984",
"9 c #F1CE8C",
"0 c #EED08F",
"q c #F2D18F",
"w c #E5CD91",
"e c #E7CF93",
"r c #EBCD90",
"t c #E8CE90",
"y c #EBCE90",
"u c #ECCF91",
"i c #F1CF90",
"p c #F2CF90",
"a c #E4D294",
"s c #E7D496",
"d c #E9D090",
"f c #EBD091",
"g c #ECD092",
"h c #EDD393",
"j c #ECD295",
"k c #EED395",
"l c #EDD494",
"z c #EFD495",
"x c #EDD997",
"c c #EDD698",
"v c #EFDA9A",
"b c #EFDF9D",
"n c #F0D290",
"m c #F4D392",
"M c #F3D492",
"N c #F6D490",
"B c #F0D194",
"V c #F3D394",
"C c #F2D494",
"Z c #F5D694",
"A c #F9D391",
"S c #F9D793",
"D c #F8D595",
"F c #F5D996",
"G c #F8D995",
"H c #F0D798",
"J c #F2D798",
"K c #F3DA99",
"L c #F5D998",
"P c #F1DC9E",
"I c #F8DA98",
"U c #F9DC9B",
"Y c #FDE09D",
"T c #F7EAA8",
/* pixels */
"z6yyf5w415557n9Ng4>*-416zDnw445nPHSn664j7066464uHny57277jjg1119g",
"7677yg7B6115qAYGm74->&&1uZi667746jL75166746445477Cy79C75uz74-#7y",
"9nn76f57f414nmFNmmq76;*4777ug65664w756y7n64*45fgnLn77bn9m054@67B",
"mNG76;14s414vKnCZNSIiu67556gn7764;>45g66fy44777unn90764145675n7N",
"N9C44**;>*1gvH7BLZmNNmgn456ZZ75576>6gC77yg5576y6nqnng514*-;15F9m",
"n5g64O&**&46PUCC7575q7ni5547nnnNZn76jgg76y55744144zZm7;>*1115770",
"g67w61464465gLjj44441***16455u5gNKz7f7y41>146;*;16zZNB0c772111j5",
"6y5s63779u667Lzj1;&&%o+&1446261a77j9C9g5*;*11;*+O;j5777c9NN741s4",
"4;@w53555f655Cng1<&**+&O;67984+:;6g9g7j5-44641&oO;z27qbv7nq765z6",
">>*w4557j67u7gCg6>&;1772116554*&;67346j927fC64*ooO6;f7Kz7qnu6644",
"6416577qy667nnZn6>,79mq76467411;67754fy757nFg54*OO*4f7w,47u74y5g",
"7C9g467u7666nnZFy4>67n7767y762166799fg641640j7g411465y4;1557664C",
"mg5y4ggFZj6667iLf6157g64477qLq44477qzz74*116777277777C56457u46uZ",
"16u5147nnC764f7g61;17f4-*445NN646906676414#446227g75nn76413765y5",
"-*64461479756774114664414***2z793x666771112564*11457q7641299nn74",
"116674**679577y1*14641>661&OO67m971,675614777641*&*6n77w2799n774",
"576w741;779777645657716j921+o*6Z77666g7764547gC7-*;6g76yu9742775",
"2CBKu777q99564757457n7uBq921*;*615f6677n755466gn7**;77MqNng42z55",
"17nZ7777772f56256441H07412771@;1*46555676y66664u7754;;;49g767nu5",
"77qFnf4611*>67735667NP04>-5x1*%*@;4nqg761y6gu4*46nn5*o%&5gn7KSNn",
"C79qMg6611*165799n079Pg4**1a>1*4;42Cmg444yuZIn6>6NIg1*+*17u7f9qZ",
"CDm90gg511>6>44gqmn9ZIUUq7;*;716475CNqinny7nIZn66fHg74;*17665q7L",
"jC0377z545z7;;;67nn775jPmq6>6ug7gg5w7775g7767zj76w6657556g41-n7U",
"CNC566j7256744-;@;6-1*,w566677znny1w6221**;;16;;;w4759726761#77F",
"nnH775j756ng7651O&,*&&*,**475-67Zg4a1*;*o&;;;,=&*67667q75664-73C",
"ZFUnzgj76417g754&O,;114,&+@1@o*5ny66;o*;*;;*aw4;;4567qm77655464n",
"GnCCCC7*&&*5gn675577779f4;11*&*474764&;64666xKLg6;1676664446777N",
"n666gC7*$X *66nNFmnnMqq041>146-**@666646667nCPqMf4;49761*46g7655",
"61667B7*X.o*66nnNDq7fg775145mN71&O407644,>5NIUnBf5*;16>**4zB6;;;",
"466647j4**4;4477qPM72f775;159qnu*;5n7w21;*1979gn791*475411606;&>",
"zjg75564;5j761147Cg5-659Hf7799DF66gCy>;4;@1515w7561-6576556641;5",
"THmn56*64ngg651wzMg5620PvCC772mnz6gfg4j515571y7n76457H76w56s656Z",
"PHSn774j7066454uHny57277jjj1119gz6yyf5w415557n9Ng4>*-416zDnw445n",
"6jL75466646445477Cy79C75uz741#7y7677yg7B6115qAYGm74->&&1uZi66774",
"64w757y7n64*45fgnLn77bn9m054@60B9nn76f57f414nmFNmmq76;*4777ug656",
"4;>45g66fy41777unn90764145675n7MmNG76;14s414vKnCZNSIiu67556gn776",
"76>6gC77yg557676nqnng514*-;15F9mN9C44**;>*1gvH5nLZmNNmgn456BZ757",
"Zn76jgg76y55744114zZm7;>*1115770n5g64O&**&46PUCC7575q7ni5617nnnN",
"NKz7f7y41>146;*;16zZNB0c762111j5g67w61464465gLgg44441***16455u7g",
"77j9C9g5*;*11;*+O;j5777c9Sm741s46y5s63779u667Lzj1;*&%o+&1446261f",
";6g9g7j5-44641&o@;z27qbv7nq765C64;@w53555y655Cgg1<&**+&O;67984+:",
";67346j927fC64*XoO6;f7Kz7qnu6644>>*w4557j47u7gCg6>&;1772116554*&",
"67754fy757nFg54*OO-4f7w,47u7>y5g6416577qy667ZnZn6>,79mq76467411;",
"6799fg641640j7g411465w4;1557664z7C9g467u7666nmFFy4>67n7767y76214",
"477qzz74*115777277777C56457u47uZmg5y4ggFZj6667iLf6157g64477qLq44",
"6976676414#446427g73nn76413965y516u5147nnC764f7g61;17f4-*445NN64",
"3x666771112564*11457q7641299nn74-*64461479756774114664414***2z79",
"971,675614777661*&*6n57w2799n974116674**679577y1*14641>661&OO66m",
"77666g7741547gC7-*;6g77yu9742775576w741;779777645677716j921+o*6Z",
"15y6677n755466gn7**;77MqNnn42z552CnKu777q99564757457n7uBq921*;*6",
"*46555y76y6y664u7754;;;49g746nu517nZ7u77772f55235641H07412971@;1",
"&;4nqgy61y6gu4*46nn5*o%&5gn7KSNn77qFnf4611&>66735667NP04>-5x1*%*",
";42Zmg444wuZGn6>6NIg1*+*17y6f9qZC79qMg6611*165799n079Pg4**1a>1*4",
"475CNqinny7nGZn66fHg74;*1766597LCDm90gj511>6>44gqmn9ZIULq7;*;716",
"gg5w7975f7767zj76y6657555g41-q0UjC0377z545z7;;;67nn775jPmq6>6gg7",
"ny1w6221**;;16;;;w4759726761#77FCNC566j7256744-;@;6-1*,w566677zn",
"Zj4a1*;*o&;;;,=&*67667q75564-73KnnH7w5j756ng7641O&,*&&*,**475-67",
"ny6w;o*;*;;*aw4;;4567qm77655464nZFUnzgj7w417g754&O,;114,&+@1@o*5",
"74764&;64666xKLg6;1677661446777NGnCCCC7*&&*5gn675577779f4;11*&*4",
"*@666646667nCPqMf4;49761-46g7655n666gC7*$X *66gNFmnnMqq041>146-*",
"&O407644,>5NLUnBf5*;16>**4zB6;;;61667B7*X.o*66nnNDq7gg775145mN71",
"*;4n7w21>*1979gn79;*475411676;&>466647j4**4;4477qPM72f776;159qnu",
"66gCy>14;@1515w7561-6576556641;5zjg75564;5j761147Cg5-659Hf7799DF",
"z6gfg4j517571y7n76457H76w56s656ZTHmn56*64ngg651wzng5620PvCC772mn"
};
