/* XPM */
static char * south_xpm[] = {
"64 64 261 2",
"  	c #100529",
". 	c #18073D",
"+ 	c #E8E6EC",
"@ 	c #1A2036",
"# 	c #566228",
"$ 	c #1C3630",
"% 	c #8A8523",
"& 	c #5B512D",
"* 	c #1C3631",
"= 	c #2F2037",
"- 	c #443632",
"; 	c #8A8522",
"> 	c #C2C315",
", 	c #1E4A2C",
"' 	c #1E4B2C",
") 	c #26AC13",
"! 	c #1F512A",
"~ 	c #1F5C27",
"{ 	c #C6C614",
"] 	c #6B6329",
"^ 	c #9EB118",
"/ 	c #4E8020",
"( 	c #527223",
"_ 	c #23801E",
": 	c #227221",
"< 	c #206225",
"[ 	c #878022",
"} 	c #7A7225",
"| 	c #657224",
"1 	c #80911E",
"2 	c #9F9C1C",
"3 	c #6B6229",
"4 	c #28AF13",
"5 	c #2BC90C",
"6 	c #248D1A",
"7 	c #216325",
"8 	c #230750",
"9 	c #251D4A",
"0 	c #312D57",
"a 	c #2F1B5C",
"b 	c #ABA91B",
"c 	c #C7C712",
"d 	c #A8A61A",
"e 	c #2F4A2C",
"f 	c #6C9E17",
"g 	c #2F921A",
"h 	c #2FF103",
"i 	c #1E4A2B",
"j 	c #24851E",
"k 	c #40167B",
"l 	c #9E981C",
"m 	c #578E1C",
"n 	c #29B911",
"o 	c #355150",
"p 	c #444273",
"q 	c #3E0680",
"r 	c #2D0761",
"s 	c #356449",
"t 	c #2D0662",
"u 	c #2F1C37",
"v 	c #574A2D",
"w 	c #B9B716",
"x 	c #938D1F",
"y 	c #3E7222",
"z 	c #30911B",
"A 	c #47586F",
"B 	c #334254",
"C 	c #5807AE",
"D 	c #3F0782",
"E 	c #360672",
"F 	c #360771",
"G 	c #3E067F",
"H 	c #2F1A5C",
"I 	c #37186C",
"J 	c #5D0775",
"K 	c #685D28",
"L 	c #2E0763",
"M 	c #4D079B",
"N 	c #370773",
"O 	c #1F5D27",
"P 	c #38186C",
"Q 	c #124B2D",
"R 	c #6107BE",
"S 	c #4D079A",
"T 	c #6908CB",
"U 	c #162037",
"V 	c #7F218E",
"W 	c #2D3232",
"X 	c #8E079C",
"Y 	c #2B462D",
"Z 	c #143632",
"` 	c #FFFFFF",
" .	c #210A3A",
"..	c #2B0E37",
"+.	c #3E1532",
"@.	c #47192F",
"#.	c #981D8E",
"$.	c #54206A",
"%.	c #411631",
"&.	c #561E2B",
"*.	c #EDC5B1",
"=.	c #42422D",
"-.	c #442E32",
";.	c #7C2E5F",
">.	c #744257",
",.	c #2A5929",
"'.	c #4C365F",
").	c #536125",
"!.	c #8E5468",
"~.	c #A32F7F",
"{.	c #653260",
"].	c #2A5829",
"^.	c #6D1C6A",
"/.	c #115C29",
"(.	c #3F6525",
"_.	c #444B56",
":.	c #514B2A",
"<.	c #4C3660",
"[.	c #3C6027",
"}.	c #96A536",
"|.	c #3E4F2A",
"1.	c #6AA517",
"2.	c #DFF28B",
"3.	c #636A24",
"4.	c #4E6D22",
"5.	c #4F5D27",
"6.	c #627920",
"7.	c #627043",
"8.	c #546125",
"9.	c #0F1E25",
"0.	c #152A63",
"a.	c #6E4A75",
"b.	c #2C3B59",
"c.	c #573F2D",
"d.	c #133F59",
"e.	c #574E75",
"f.	c #453F82",
"g.	c #4C2A90",
"h.	c #385896",
"i.	c #161950",
"j.	c #515F6A",
"k.	c #295F49",
"l.	c #115875",
"m.	c #124682",
"n.	c #722BB0",
"o.	c #E8E9EB",
"p.	c #142961",
"q.	c #572F41",
"r.	c #286E42",
"s.	c #441C48",
"t.	c #684E29",
"u.	c #2F0750",
"v.	c #8D089D",
"w.	c #442F32",
"x.	c #3E46A6",
"y.	c #105D9B",
"z.	c #541983",
"A.	c #2D2C48",
"B.	c #572E41",
"C.	c #3D3A66",
"D.	c #2B1961",
"E.	c #7B2F60",
"F.	c #5D47C0",
"G.	c #813B9F",
"H.	c #2B2048",
"I.	c #133973",
"J.	c #423D41",
"K.	c #57402D",
"L.	c #571C58",
"M.	c #A308AE",
"N.	c #674E29",
"O.	c #AC3087",
"P.	c #62198E",
"Q.	c #646C22",
"R.	c #273641",
"S.	c #BA2DBC",
"T.	c #440761",
"U.	c #535748",
"V.	c #415429",
"W.	c #272A73",
"X.	c #105D9A",
"Y.	c #9F1C93",
"Z.	c #884057",
"`.	c #6D0782",
" +	c #72326A",
".+	c #777040",
"++	c #626F50",
"@+	c #7E586D",
"#+	c #3E2058",
"$+	c #702080",
"%+	c #414A51",
"&+	c #21468F",
"*+	c #9908A6",
"=+	c #A23080",
"-+	c #652C76",
";+	c #6E544F",
">+	c #244A3B",
",+	c #143048",
"'+	c #2B4E50",
")+	c #402C58",
"!+	c #4C298F",
"~+	c #6E4A74",
"{+	c #892E6A",
"]+	c #273058",
"^+	c #1E6841",
"/+	c #383066",
"(+	c #382981",
"_+	c #28698C",
":+	c #512B67",
"<+	c #991C8D",
"[+	c #882F6A",
"}+	c #7C078E",
"|+	c #574D74",
"1+	c #26812C",
"2+	c #3E5760",
"3+	c #2A5B5E",
"4+	c #952D9E",
"5+	c #943F5F",
"6+	c #383650",
"7+	c #124A2D",
"8+	c #124541",
"9+	c #2B4968",
"0+	c #3E5C4D",
"a+	c #10696A",
"b+	c #327469",
"c+	c #7B1C75",
"d+	c #123E58",
"e+	c #5E416B",
"f+	c #296825",
"g+	c #A32E7F",
"h+	c #3D463B",
"i+	c #657463",
"j+	c #395936",
"k+	c #525770",
"l+	c #2A533B",
"m+	c #1676BD",
"n+	c #2B4141",
"o+	c #0F6C8B",
"p+	c #3F616A",
"q+	c #2A5475",
"r+	c #440662",
"s+	c #665E25",
"t+	c #444A56",
"u+	c #891C81",
"v+	c #74367F",
"w+	c #277722",
"x+	c #513250",
"y+	c #4F187F",
"z+	c #244550",
"A+	c #45456B",
"B+	c #287722",
"C+	c #30484E",
"D+	c #555128",
"E+	c #744256",
"F+	c #366930",
"G+	c #322B30",
"H+	c #4D4F26",
"I+	c #555A24",
"J+	c #D3DE96",
"K+	c #234A3B",
"L+	c #21113D",
"                                                                                                                                ",
"  . . . . . . . . . . . . . . . . . . . . . . . . . . . . . . . . . . . . . . . . . . . . . . . . . . . . . . . . . . . . . .   ",
"  . . . . . . . . . . . . . . . . . . . . . . . . . . . . . . . . . . . . . . . . . . . . . . . . . . . . . . . . . . . . . .   ",
"  . . . . . . . . . . . . . . . . . . . . . . . . . . . . . . . . . . . . . . . . . . . . . . . . . . . . . . . . . . . . . .   ",
"  . . . . . . . . . . . . . . . . . . + . . . . . . . . . . . . . . . . . . . . . . . . . . . . . . . . . . . . . . . . . . .   ",
"  . . . . . . . . . . . . . . . . . . . . . . . . . . . . . . . . . . . . . . . . . . . . . . . . . . . . . . . . . . . . . .   ",
"  . . . . . . . . . . . . . . . @ . . . . . . . . . . . . . . . . . . . . . . . . . . . . . . . . . . . . . . . . . . . . . .   ",
"  . . . . . . . . . . . @ @ @ . @ @ . . . . . . . . . . . . . . . . . . . . . . . . . . . . . . . . . . . . . . . . . . . . .   ",
"  . . . . . . . . . . # # . @ @ $ @ $ @ @ . . . . . . . . . . . . . . . . . . . . . . . . . . . . . . . . . . . . . . . . . .   ",
"  . . . . . % . . . & % . # . @ * @ . $ @ $ @ . . * . . . . . . . . . . . . . . . . . . . . . . . . . . . . . . . . . . . . .   ",
"  . . = - . . % & ; ; # @ & > & , ' , ' ) ! ! . . @ ~ . $ $ . @ . . . . . . . . . . . . . . . . . . . . . . . . . . . . . . .   ",
"  . . . - - % { . & . ] . # ^ # $ / ( _ : ! < @ @ * . . . @ @ @ * @ . @ . . . . . . . . . . . . . . . . . . . . . . . . . . .   ",
"  . . = . - . ] - [ ; = . } | = 1 2 3 4 5 6 7 . @ 8 9 0 . a @ * , @ @ . . . . . . . . . . . . . . . . . . . . . . . . . . . .   ",
"  . . . - - - - . = b & ] & c - d e f g h i j . * $ k 9 $ . @ 9 . . . . 9 . . . . . . . . . . . . . . . . . . . . . . . . . .   ",
"  . . . . . - . = . = ; & . l & } m = . n o p . 8 . i q r s 0 @ 9 $ t 9 8 8 . . . . . . . . . . . . . u . . u . . . . . . . .   ",
"  . . . . . . = . = - = v - w x = - y z A B C D 8 E @ F G 9 9 H I . . . @ . . . . . . . . . . . J . . . . . . . . . . . . . .   ",
"  . . . . . . . . . = - = = K . v - = L L . M C D N 8 . t . O @ P 8 9 t . . . . . . . . . . . u . . . . . . . Q . J . . . . .   ",
"  . . . . . . . . . . - . v . - . = = L . D R M S T 8 . r 8 8 . 8 8 8 . 8 . . . . . . . . . . . U u V . . . u . W . . . . . .   ",
"  . . . . . . . . . . . . = . = . = L L M L . L L L . 8 . . . . . . . . . . . . . . . . . J . J X u . U . . Y u . U . . . . .   ",
"  . . . . . . . . . . . = . = . . . . . D L M L M D . . . . . . . . . . . . . . . . . . u . . J . J u U u . . . Y U . Z . . .   ",
"  . . . . . . . . . + ` ` ` ` ` ` ` . . L . L . .  .... . . . . . . . . . . . . . . . . U J . . U U J . . u . . U U U . . . .   ",
"  . . . . . . . . . ` . . . . . . . ` ` ` ` ` ` ` +.@.... . . . . . . . . . . . . . . . #.. . . . U . $.u $.. $.. . U u . . .   ",
"  . . . . . . . ` ` . . . . . . . . . . . . .  .%.&.*.@.... . . . . . . . . . . . . u u u =.-.. U u J . W . U ;.U . . . . . .   ",
"  . . . . . ` ` . . . . . . . . . . . . . . . .  .+.@.... . . . . . . + . . . . . . . u . . W . >.,.. . U '.U ,.'.. . . U U .   ",
"  . . . . ` . . . . . . . . . . . . . . . . . . . ` ... . . . . . . . . . . . . . . . . ).U . Y Z . u u . . . . . . . U . . .   ",
"  . . ` ` . . . . . . . . . . . . . . . . . . . . ` . . . . . . . . . . . . . U . . U . . $.Z =.!.;.W . J . . U U Z u J U . .   ",
"  + ` . . . . . . . . . . . . . . . . . . . . . . ` . . . . . . . . . . . . . . U u . U . ~.Z Z U {.U u W u U u J W W . . U .   ",
"  . . . . . . . . . . . . . . . . . . . . . . . . ` . . . . . . . . . . . . . U . U u U . W . ].J Z U u U $.$.^.-.U W . . U .   ",
"  . . . . . . . . . . . . . . . . . . . . . . . . ` . . . . . . . . . . . . . U . /.W . J u . Z =.(.-.$.Z U $.. _.. J . . . .   ",
"  . . . . . . . . . . . . . . . . . . . . . . . . ` . . . . . . . . . . . . W . . U U . U Z $.u $.. u #.U :.u . . U Z U . . .   ",
"  . . . . . . . . . . . . . . . . . . . . . . . . ` . . . . . . . . . . . . . U . . U U U <.u . . U ` ` [.}.|.u u J . . . . .   ",
"  . . . . . . . . . . . . . . . . . . . . . . . . ` . . . . . . . . . . . . . u U . . ^.$.Z u ` ` ` J [.1.2.3.4.. . J . U U .   ",
"  . . . . . . . . . . . . . . . . . . . . . . . ` . . . . . . . . . . . . U W W . u . -.` ` ` W Z u <.. 5.6.7.` U . U . . . Q   ",
"  . . . . . . . . . . . . . . . . . . . . . . . ` . . . . . . . . . . . . U . . . ` ` ` u U Y Z u U U Z Z [.].` <.. U . U . .   ",
"  . . . . . . . . . . . . . . . . . . . . . . . ` . . . . . . . . . . . . . ` ` ` . . Z Y u U U {.U 8.-.].. Z Y ` . U . . . . 9.",
"  . . . . . . . . . . . . . . . . . . . . . . . ` . . . . . . . . . . ` ` ` Z W . . u . . Y W ^.J U 0.a.b.c.<.. ` . U . . U .   ",
"  . . . . . . . . . . . . . . . . . . . . . . . ` . . . . . . . ` ` ` . . . . . Z . Z U 0.U Y 0.. . d.0.. U u . . ` U . . . U   ",
"  . . . . . . . . . . . . . . . . . . . . . . . ` . . . . ` ` ` . . . . . . U . . . u . W u U e.. Z u f.g.U h.$.. ` . U . U .   ",
"  . . . . . . . . . . . . . . . . i.. . . . i.. ` . ` ` ` . . . . . . 0.. 0.. U 0.u d.^.d.g.J u f.W j.k.u d.. l.. ` . . . U .   ",
"  . . . . . . . . . . i.. . . . . . . . . . . . ` ` . . . . . . . . . . . 0.0.. 0.0.. U W U m.d.U n.d.U . o.J d.. U ` U U . .   ",
"  . . . . . . . . . i.. . . p.. i.. . q.. . . + ` ` ` ` ` ` . . . . . . . 0.. . . d.d.U . J 0.r.d.. d.. g.. . . X . ` . . U .   ",
"  . . . . . . . . . . . . . s.i.u ^.c.t.c.. u.. ~.v.w.. u.. ` ` ` ` ` ` ` ` ` ` ` ` . J x.d.d.U 0.y.0.Z 0.0.d.U . . . ` U . .   ",
"  . . . . . . . . . u u X . z.. z.u u.w.u u i.. A.. . . . . . i.. i.0.. . . 0.. . . ` ` ` ` ` ` ` ` ` ` ` ` . U Z . . ` . . .   ",
"  . . . . . . . . . u . . u.. . B.A.u . C.-.s.D.. . E.A.J . i.^.. ^.. . u -.. 0.0.. 0.x.. . . . 0.F.U J 0.0.` ` ` ` ` ` . . .   ",
"  . . . . . . . . u u.i.u . A.J G.A.. J . s.z.A.u . . i.. H.. . . . H.I.. J 0.. . 0.. m.y.J 0.. 0.. . g.m.. . m.. . . . . . .   ",
"  . . . . . . . u p.-.. J J.K.u . L.M.J N.. O.P.A.u u Q.u D.U R.J U u.0.0.. 0.B.. u . 0.0.m.. m.0.. 0.. 0.. m.. . . . . . . .   ",
"  . . . u.. . . u.i.u.. S.. u w.B.J u T.U.i.J X u Z Z w.W u V.g.Q i.W.0.T.d.Z U . 0.b.J 0.0.. 0.0.. 0.. . 0.X.. . . . . . . .   ",
"  . . . . . . . u i.u u.. w.J Y.Z.X q.w.q.i.`.s.H.z. +s..+++. ^.@+. . #+U u.$+0.0.U %+&+0.. X.0.m.0.. . . 0.. . . . . . . . .   ",
"  . . . . . . i.*+. . A.c.. . J.P.=+u Z.. . . -+;+i.Z . Y H.W H.>+Z ,+0.. u.U '+. e.J . m.. 0.0.m.. . 0.. . . . J . . . . . .   ",
"  . . . . . . . J `.. s.. . u u u.)+X !+~+. $.W W U `.U $.].{+]+d.W . ^+/./+U U (+0.g._+y.g.. . y.0.. . X.0.. . . . . . . . .   ",
"  . . . . . . u u . s.-.J J u :+w.<+[+}+u ]+{.W W Y |+H.1+2+W . $.3+U U U u . m.Y H.. . J J 0.0.m.0.. y.0.. 0.. . . . . . . .   ",
"  . . . . . . . i.T.u 4+J w.. . w.. c.w.B.i.5+W 6+/.Z s.U W . 7+8+U U <.9+0+b.a+. 0.b+=.. 0.0.m.m.g.. m.. . . . . . . . . . .   ",
"  . . . . . . . u.u u.`.c+. u.. ^.-.. w.H.W =.d+e+Z f+Z g+h+U 7+. W . . W W.Z J . m.. 0.. m.0.. m.. 0.0.. . . . . . . . . . .   ",
"  . . . . . . . . u . i.u.. . <+i.. s.i.L.W i+j+-+k+U h+{.>+U <.u . 7+l+m+n+Z U o+p+q+0.0.. . 0.. . . 0.0.. . . . . . . . . .   ",
"  . . . . . . . . u.u . i.. u . s.[+r+U u.s+]+J <+U i.u . H.8+. U . Z t+Z U U Z . . 0.m.m.. . . . . . . 0.. . . . . . . . . .   ",
"  . . . . . . . . . . ^.-.u.u . w.u+w.U ^.v+u.Y J W w+J U 7+Z u U . . Z x+W Z d.7+U m.0.. . . . . . . . . . . . . . . . . . .   ",
"  . . . . . . . . J . . s.u y+u J u . . U Y W $.u V.u U u u U W . z+A+Z . B+. U . . d.u.C+. . 0.. . . . . . . . . . . . . . .   ",
"  . . . . . . . . . u.. . J B.. u . u u u -.$./.D+E+. i.. -.`.U F+i.Y . Z Z U W U . . G+H+G+. . . . . . . . . . . . . . . . .   ",
"  . . . . . . . . . . . . . . . . . . . . . . J U . d+Z v.U U . =.W u.Z Y Z u . U . G+I+J+H+G+. . . . . . . . . . . . . . . .   ",
"  . . . . . . . . . . . . . . . . . . . . U . . U U . 7+Z K+. U Z U U U U . . Q . . . G+H+G+. . . . . . . . . . . . . . . . .   ",
"  . . . . . . . . . . . . . . . . . . . . . . U U . Z L+Z . . . . U U . . . . . . . . . G+. . . . . . . . . . . . . . . . . .   ",
"  . . . . . . . . . . . . . . . . . . . . . . . . . . Z . . U . Z U . Z . . . . . . . . . . . . . . . . . . . . . . . . . . .   ",
"  . . . . . . . . . . . . . . . . . . . . . . . . . U U . Z 7+Z . . . . . . . . . . . . . . . . . . . . . . . . . . . . . . .   ",
"                                                        9.                                                                      "};
