/* XPM */
static char * west_xpm[] = {
"64 64 84 1",
" 	c #100529",
".	c #18073D",
"+	c #2F2050",
"@	c #5D5177",
"#	c #8D85A0",
"$	c #1A3832",
"%	c #1D6826",
"&	c #1D7622",
"*	c #5DAD5C",
"=	c #FFFFFF",
"-	c #463863",
";	c #2B2036",
">	c #2F0650",
",	c #602B58",
"'	c #570471",
")	c #53195C",
"!	c #440562",
"~	c #5D4240",
"{	c #746139",
"]	c #401C4A",
"^	c #4F3046",
"/	c #429146",
"(	c #76726F",
"_	c #3C3631",
":	c #4C3F32",
"<	c #817727",
"[	c #908824",
"}	c #9A923C",
"|	c #5B6375",
"1	c #0B8535",
"2	c #105138",
"3	c #8D03A0",
"4	c #5D0477",
"5	c #133638",
"6	c #0E6236",
"7	c #5B1675",
"8	c #15203A",
"9	c #2C1C4E",
"0	c #0C7234",
"a	c #583874",
"b	c #123638",
"c	c #104A35",
"d	c #8B1A9D",
"e	c #5A2574",
"f	c #8C0F9E",
"g	c #970DA8",
"h	c #6D0484",
"i	c #06AF2E",
"j	c #583372",
"k	c #114A36",
"l	c #564070",
"m	c #870F9A",
"n	c #68037F",
"o	c #574071",
"p	c #AE57BB",
"q	c #76448C",
"r	c #440561",
"s	c #6B1383",
"t	c #411960",
"u	c #402B5E",
"v	c #2B304C",
"w	c #680480",
"x	c #114B36",
"y	c #0F5D34",
"z	c #77048D",
"A	c #6D5184",
"B	c #A6A047",
"C	c #656D22",
"D	c #4B4A2B",
"E	c #3C3630",
"F	c #743460",
"G	c #656D23",
"H	c #8E4FA0",
"I	c #707B1E",
"J	c #4B4A2C",
"K	c #AF02BC",
"L	c #74345F",
"M	c #9B3381",
"N	c #7E4856",
"O	c #595C27",
"P	c #595D27",
"Q	c #6B6372",
"R	c #691D6A",
"S	c #595C28",
"                                                                ",
" ..................+..................+........................ ",
" .........................+..........................@......... ",
" .............................................@@............... ",
" .........+..............+....................@......@......... ",
" ....+....................................+.................... ",
" .......+.....+..............................#................. ",
" ......+............+....................@.......@.....$@...... ",
" ....................................................@$%$...... ",
" .........+..................................@.......$&*%$..... ",
" ....................+.........................@....==$%$...... ",
" ....................................+...+........==..=$....... ",
" .+..........++.................................==...=......... ",
" ............+.............................+..==....=.......... ",
" ...............................-..........===@....=........... ",
" ...........................+....+.......==....;.>=...>........ ",
" .......+.............................-==....;;.;=>,........... ",
" ....................-...........$...==.......;;=>>')>..!...... ",
" ...............................$%$==........;;=;~{]^.!.>!..... ",
" ..............................$&/%$..........=;;.^.!]>.>...... ",
" .............................==$%$..........=(_.;..>..>....... ",
" ..........................===...$..........=.....;............ ",
" .......................===................=................... ",
" ............:......====..................=.................... ",
" ...........:<:..===...................@.=..................... ",
" ..........:[}<==.............@.........=...................... ",
" ...........:<:........................=...........-........... ",
" ............:..................@.....=........................ ",
" .............................-......=......................... ",
" ...............................@...=.......................... ",
" ..................................=.....@......-.............. ",
" ........@........................=........@................... ",
" .................................@=........................... ",
" .........@.........@.....@.......==........................... ",
" ................................=..=........-................. ",
" ...............................=...=.......................... ",
" ......@............@.@........=....=.......................... ",
" .............................=....@==......................... ",
" ........@..........@........=........==..-.................... ",
" ...........................=...........===.................... ",
" ................|.........=...............==-@................ ",
" ...........12.3..45.4..4..=.................=................. ",
" .......2..26-7774.897.4..=..............-...=................. ",
" ..........08abcdefgh4...=...................=................. ",
" ..........10ijkl.m8n>..=....................=...........@..... ",
" ........088.8j7opq8r'>=....................=.....@............ ",
" .........5..c8stu9v'w=>....................=.......@.......... ",
" .......@.x888y.8r8z>=>.....-...............=.................. ",
" .......@....8..5t..=.....................:.=.................. ",
" .................A=.....-...............:<:=.................. ",
" .................=.....................:[B<:..@.........;..... ",
" ......@..........=....................==:<:..........4...;.... ",
" .................=........-.......====...:....@....3.4;;;_.... ",
" ..................=...........====..............3....;CD..E;;. ",
" ....@....@........=.......====.-.............4.44...FE..G;G... ",
" ..................=...====..................@34.H34F..ID.;J;.; ",
" ..................@===.......................4344K4L;.MNOE.P.. ",
" .....@@.......................................3.3_;;O.QD_..... ",
" .........@...................................444;.;..;;_E;.... ",
" ...................@...........................4R;;;.;.E...... ",
" ..@...............@..............................S............ ",
" ..................................................;........... ",
" ......@.......@...@........................................... ",
"                                                                "};
